<svg width="27" height="27" viewBox="0 0 27 27" fill="none" xmlns="http://www.w3.org/2000/svg">
<path d="M8.25 5.5H18.75C20.1925 5.5 21.1737 5.50212 21.9086 5.60092C22.6146 5.69584 22.9416 5.86322 23.1642 6.08579C23.3868 6.30836 23.5542 6.63538 23.6491 7.34143C23.7479 8.07625 23.75 9.05752 23.75 10.5V16.5C23.75 17.9425 23.7479 18.9237 23.6491 19.6586C23.5542 20.3646 23.3868 20.6916 23.1642 20.9142C22.9416 21.1368 22.6146 21.3042 21.9086 21.3991C21.1737 21.4979 20.1925 21.5 18.75 21.5H8.25C6.80752 21.5 5.82625 21.4979 5.09143 21.3991C4.38538 21.3042 4.05836 21.1368 3.83579 20.9142C3.61322 20.6916 3.44584 20.3646 3.35092 19.6586C3.25212 18.9237 3.25 17.9425 3.25 16.5V10.5C3.25 9.05752 3.25212 8.07625 3.35092 7.34143C3.44584 6.63538 3.61322 6.30836 3.83579 6.08579C4.05836 5.86322 4.38538 5.69584 5.09143 5.60092C5.82625 5.50212 6.80752 5.5 8.25 5.5Z" stroke="#FE4444" stroke-width="2"/>
<path d="M4.5 6.75L11.1 11.7C12.2556 12.5667 12.8333 13 13.5 13C14.1667 13 14.7444 12.5667 15.9 11.7L22.5 6.75" stroke="#FE4444" stroke-width="2"/>
</svg>
