<svg width="27" height="27" viewBox="0 0 27 27" fill="none" xmlns="http://www.w3.org/2000/svg">
<path d="M20.25 5.03984C18.4598 3.24963 16.0317 2.2439 13.5 2.2439C10.9682 2.2439 8.54019 3.24963 6.74998 5.03984C4.95977 6.83005 3.95404 9.2581 3.95404 11.7898C3.95404 14.3216 4.95977 16.7496 6.74998 18.5398L12.6787 24.4798C12.7833 24.5853 12.9077 24.669 13.0448 24.7261C13.1819 24.7832 13.329 24.8126 13.4775 24.8126C13.626 24.8126 13.773 24.7832 13.9101 24.7261C14.0472 24.669 14.1716 24.5853 14.2762 24.4798L20.25 18.4836C22.0327 16.7008 23.0342 14.2829 23.0342 11.7617C23.0342 9.24053 22.0327 6.8226 20.25 5.03984ZM18.6412 16.8748L13.5 22.0386L8.35873 16.8748C7.34302 15.8582 6.65152 14.5632 6.37164 13.1537C6.09176 11.7441 6.23607 10.2832 6.78632 8.9556C7.33658 7.62803 8.26808 6.49339 9.46307 5.69512C10.6581 4.89686 12.0629 4.47079 13.5 4.47079C14.9371 4.47079 16.3419 4.89686 17.5369 5.69512C18.7319 6.49339 19.6634 7.62803 20.2136 8.9556C20.7639 10.2832 20.9082 11.7441 20.6283 13.1537C20.3484 14.5632 19.6569 15.8582 18.6412 16.8748ZM10.125 8.33609C9.21679 9.24708 8.7068 10.481 8.7068 11.7673C8.7068 13.0537 9.21679 14.2876 10.125 15.1986C10.7997 15.8745 11.659 16.3361 12.5951 16.5254C13.5312 16.7148 14.5023 16.6235 15.3867 16.263C16.2711 15.9025 17.0293 15.2889 17.5663 14.4991C18.1032 13.7093 18.395 12.7786 18.405 11.8236C18.4101 11.1859 18.2872 10.5538 18.0437 9.9644C17.8003 9.37504 17.4411 8.84049 16.9875 8.39234C16.5416 7.93624 16.0099 7.57282 15.4231 7.32299C14.8362 7.07316 14.2057 6.94185 13.5679 6.93662C12.9301 6.93139 12.2976 7.05235 11.7067 7.29252C11.1158 7.5327 10.5783 7.88736 10.125 8.33609ZM15.4012 13.6011C14.9749 14.0339 14.4115 14.3052 13.8073 14.3686C13.203 14.432 12.5956 14.2836 12.0887 13.9486C11.5818 13.6137 11.207 13.1131 11.0284 12.5324C10.8497 11.9518 10.8783 11.3271 11.1093 10.7651C11.3403 10.2032 11.7593 9.73898 12.2946 9.45179C12.83 9.1646 13.4485 9.0723 14.0444 9.19066C14.6403 9.30902 15.1766 9.63069 15.5616 10.1007C15.9465 10.5707 16.1563 11.1598 16.155 11.7673C16.1386 12.4618 15.8473 13.1213 15.345 13.6011H15.4012Z" fill="#FE4444"/>
</svg>
