<svg width="21" height="19" viewBox="0 0 21 19" fill="none" xmlns="http://www.w3.org/2000/svg">
<path d="M17.3739 10.4047C17.17 10.4225 16.9512 10.3763 16.7432 10.3478C16.3225 10.2916 15.9063 10.2063 15.4974 10.0925C15.0538 9.97372 14.5818 10.0232 14.1724 10.2314C13.7631 10.4397 13.4452 10.7919 13.2799 11.2205L13.1133 11.6647C12.1685 11.2329 11.2824 10.6828 10.4764 10.0275C9.69112 9.3475 8.99547 8.57043 8.40621 7.71495L8.81553 7.48301C9.20886 7.24586 9.50059 6.87161 9.63457 6.43229C9.76855 5.99297 9.73533 5.51962 9.54128 5.10332C9.35914 4.71676 9.20263 4.31862 9.07277 3.9115C9.00859 3.71165 8.95286 3.50172 8.90722 3.30024C8.73755 2.65723 8.34387 2.09593 7.79708 1.71742C7.25029 1.3389 6.58632 1.16806 5.92474 1.23564L3.13491 1.47972C2.74304 1.51349 2.36272 1.6297 2.0189 1.82073C1.67508 2.01176 1.37552 2.27331 1.13985 2.58821C0.899456 2.91152 0.731904 3.28304 0.648703 3.67724C0.565502 4.07144 0.568626 4.47898 0.65786 4.87186C1.49919 8.68547 3.57525 12.115 6.56412 14.6286C9.55854 17.1355 13.2964 18.5845 17.1982 18.7509C17.3193 18.7495 17.4402 18.739 17.5597 18.7192C18.2432 18.6604 18.8812 18.3519 19.3518 17.8526C19.621 17.5659 19.8265 17.2254 19.9549 16.8537C20.0834 16.4819 20.1318 16.0872 20.097 15.6954L19.8537 12.9148C19.7927 12.2749 19.5126 11.6756 19.0608 11.2182C18.609 10.7609 18.0131 10.4735 17.3739 10.4047ZM11.4677 0.647963C11.2545 0.666613 11.0321 0.686075 10.8189 0.704725C10.5749 0.747126 10.3577 0.884714 10.2152 1.08722C10.0727 1.28973 10.0164 1.54057 10.0588 1.78456C10.1012 2.02855 10.2388 2.2457 10.4413 2.38824C10.6438 2.53079 10.8946 2.58705 11.1386 2.54465L11.6299 2.50167C13.1048 2.37263 14.5705 2.83478 15.7047 3.78645C16.8388 4.73812 17.5485 6.10136 17.6775 7.57626C17.6921 7.74309 17.7059 7.90066 17.7205 8.06749C17.7213 8.3138 17.8198 8.54973 17.9943 8.72354C18.1689 8.89736 18.4052 8.99487 18.6515 8.9947L18.7257 8.98822C18.9578 8.96886 19.1742 8.86315 19.3321 8.69197C19.4901 8.52079 19.5781 8.2966 19.5787 8.06369C19.5601 7.85051 19.5406 7.62807 19.522 7.41489C19.3501 5.44996 18.4052 3.63361 16.8951 2.36481C15.3849 1.096 13.4328 0.47851 11.4677 0.647963ZM13.9701 7.90062C13.9916 8.14643 14.1099 8.37364 14.2989 8.53225C14.4879 8.69086 14.7322 8.76789 14.978 8.74638C15.2239 8.72488 15.4511 8.6066 15.6097 8.41757C15.7683 8.22855 15.8453 7.98426 15.8238 7.73844C15.7378 6.75517 15.2647 5.84635 14.5086 5.2119C13.7525 4.57745 12.7753 4.26935 11.792 4.35538C11.5462 4.37689 11.319 4.49516 11.1604 4.68419C11.0018 4.87321 10.9248 5.11751 10.9463 5.36332C10.9678 5.60914 11.0861 5.83635 11.2751 5.99496C11.4641 6.15357 11.7084 6.23059 11.9542 6.20909C12.4459 6.16608 12.9344 6.32013 13.3125 6.63735C13.6905 6.95457 13.9271 7.40898 13.9701 7.90062Z" fill="#FE4444"/>
</svg>
