<svg width="15" height="19" viewBox="0 0 15 19" fill="none" xmlns="http://www.w3.org/2000/svg">
<path d="M12.75 2.91995C11.3576 1.52757 9.46913 0.745331 7.5 0.745331C5.53087 0.745331 3.64239 1.52757 2.25 2.91995C0.857613 4.31234 0.0753784 6.20082 0.0753784 8.16995C0.0753784 10.1391 0.857613 12.0276 2.25 13.42L6.86125 18.04C6.94259 18.122 7.03937 18.1871 7.146 18.2315C7.25262 18.2759 7.36699 18.2988 7.4825 18.2988C7.59801 18.2988 7.71238 18.2759 7.819 18.2315C7.92563 18.1871 8.02241 18.122 8.10375 18.04L12.75 13.3762C14.1366 11.9896 14.9155 10.109 14.9155 8.14808C14.9155 6.18715 14.1366 4.30655 12.75 2.91995ZM11.4987 12.125L7.5 16.1412L3.50125 12.125C2.71125 11.3342 2.17342 10.327 1.95573 9.23071C1.73805 8.13437 1.85029 6.99811 2.27827 5.96555C2.70624 4.93299 3.43074 4.0505 4.36018 3.42962C5.28961 2.80874 6.38226 2.47736 7.5 2.47736C8.61774 2.47736 9.71039 2.80874 10.6398 3.42962C11.5693 4.0505 12.2938 4.93299 12.7217 5.96555C13.1497 6.99811 13.262 8.13437 13.0443 9.23071C12.8266 10.327 12.2887 11.3342 11.4987 12.125ZM4.875 5.4837C4.16862 6.19225 3.77197 7.15195 3.77197 8.15245C3.77197 9.15296 4.16862 10.1127 4.875 10.8212C5.39979 11.3469 6.06814 11.7059 6.79619 11.8532C7.52425 12.0005 8.27958 11.9295 8.96744 11.6491C9.65529 11.3687 10.245 10.8914 10.6627 10.2772C11.0803 9.66289 11.3072 8.93896 11.315 8.1962C11.3189 7.70026 11.2234 7.20855 11.034 6.75017C10.8447 6.29178 10.5653 5.87601 10.2125 5.52745C9.86571 5.17271 9.4522 4.89005 8.99574 4.69573C8.53929 4.50142 8.04892 4.39929 7.55285 4.39523C7.05678 4.39116 6.5648 4.48524 6.10522 4.67204C5.64565 4.85885 5.22756 5.13469 4.875 5.4837ZM8.97875 9.5787C8.64716 9.91535 8.20893 10.1264 7.73899 10.1757C7.26904 10.225 6.79656 10.1095 6.40232 9.84901C6.00808 9.58852 5.71657 9.19916 5.57763 8.74753C5.43869 8.29589 5.46094 7.81001 5.64059 7.37296C5.82023 6.93592 6.14611 6.57484 6.56251 6.35147C6.97891 6.1281 7.45997 6.05631 7.92344 6.14837C8.38692 6.24042 8.80402 6.49062 9.10345 6.85617C9.40287 7.22172 9.56602 7.67993 9.565 8.15245C9.55227 8.69256 9.32568 9.20554 8.935 9.5787H8.97875Z" fill="#FE4444"/>
</svg>
