<svg width="332" height="40" viewBox="0 0 332 40" fill="none" xmlns="http://www.w3.org/2000/svg">
<path d="M9.58 21.66H10.66C11.66 21.66 12.38 21.3467 12.82 20.72L19.38 11.2C19.7667 10.6933 20.18 10.3467 20.62 10.16C21.0733 9.96 21.6333 9.86 22.3 9.86H28.18L19.54 21.64C18.9267 22.4533 18.2667 23.04 17.56 23.4C18.0667 23.5867 18.5267 23.8467 18.94 24.18C19.3533 24.5133 19.74 24.9467 20.1 25.48L28.9 39H22.86C22.4733 39 22.14 38.9733 21.86 38.92C21.5933 38.8667 21.36 38.7867 21.16 38.68C20.96 38.5733 20.7867 38.4467 20.64 38.3C20.4933 38.14 20.3533 37.96 20.22 37.76L13.62 27.62C13.38 27.2467 13.0733 26.9867 12.7 26.84C12.34 26.68 11.8467 26.6 11.22 26.6H9.58V39H2.82V9.86H9.58V21.66ZM37.8622 39H31.0622V9.86H37.8622V39ZM68.9241 9.86V39H65.4041C64.8841 39 64.4441 38.92 64.0841 38.76C63.7374 38.5867 63.3907 38.2933 63.0441 37.88L49.3041 20.5C49.3574 21.02 49.3907 21.5267 49.4041 22.02C49.4307 22.5 49.4441 22.9533 49.4441 23.38V39H43.4841V9.86H47.0441C47.3374 9.86 47.5841 9.87333 47.7841 9.9C47.9841 9.92667 48.1641 9.98 48.3241 10.06C48.4841 10.1267 48.6374 10.2267 48.7841 10.36C48.9307 10.4933 49.0974 10.6733 49.2841 10.9L63.1441 28.4C63.0774 27.84 63.0307 27.3 63.0041 26.78C62.9774 26.2467 62.9641 25.7467 62.9641 25.28V9.86H68.9241ZM81.3778 15.06V21.86H90.5378V26.86H81.3778V33.8H93.3378V39H74.5778V9.86H93.3378V15.06H81.3778ZM118.448 15.22H110.248V39H103.488V15.22H95.2875V9.86H118.448V15.22ZM128.683 39H121.883V9.86H128.683V39ZM153.944 31.46C154.104 31.46 154.264 31.4933 154.424 31.56C154.584 31.6133 154.738 31.7133 154.884 31.86L157.564 34.68C156.391 36.2133 154.918 37.3733 153.144 38.16C151.384 38.9333 149.298 39.32 146.884 39.32C144.671 39.32 142.684 38.9467 140.924 38.2C139.178 37.44 137.691 36.4 136.464 35.08C135.251 33.7467 134.318 32.1733 133.664 30.36C133.011 28.5333 132.684 26.5533 132.684 24.42C132.684 22.2467 133.038 20.2533 133.744 18.44C134.451 16.6133 135.444 15.04 136.724 13.72C138.004 12.4 139.538 11.3733 141.324 10.64C143.111 9.90667 145.078 9.54 147.224 9.54C148.318 9.54 149.344 9.64 150.304 9.84C151.278 10.0267 152.184 10.2933 153.024 10.64C153.864 10.9733 154.638 11.38 155.344 11.86C156.051 12.34 156.678 12.86 157.224 13.42L154.944 16.48C154.798 16.6667 154.624 16.84 154.424 17C154.224 17.1467 153.944 17.22 153.584 17.22C153.344 17.22 153.118 17.1667 152.904 17.06C152.691 16.9533 152.464 16.8267 152.224 16.68C151.984 16.52 151.718 16.3533 151.424 16.18C151.144 15.9933 150.804 15.8267 150.404 15.68C150.018 15.52 149.558 15.3867 149.024 15.28C148.504 15.1733 147.891 15.12 147.184 15.12C146.064 15.12 145.038 15.3267 144.104 15.74C143.184 16.1533 142.384 16.76 141.704 17.56C141.038 18.3467 140.518 19.32 140.144 20.48C139.784 21.6267 139.604 22.94 139.604 24.42C139.604 25.9133 139.804 27.24 140.204 28.4C140.618 29.56 141.171 30.54 141.864 31.34C142.571 32.1267 143.391 32.7267 144.324 33.14C145.258 33.5533 146.258 33.76 147.324 33.76C147.938 33.76 148.498 33.7333 149.004 33.68C149.511 33.6133 149.984 33.5133 150.424 33.38C150.864 33.2333 151.278 33.0467 151.664 32.82C152.051 32.58 152.444 32.28 152.844 31.92C153.004 31.7867 153.178 31.68 153.364 31.6C153.551 31.5067 153.744 31.46 153.944 31.46Z" fill="#FE4444"/>
<path d="M159.775 24.34H170.575V29.34H159.775V24.34ZM195.116 31.46C195.276 31.46 195.436 31.4933 195.596 31.56C195.756 31.6133 195.91 31.7133 196.056 31.86L198.736 34.68C197.563 36.2133 196.09 37.3733 194.316 38.16C192.556 38.9333 190.47 39.32 188.056 39.32C185.843 39.32 183.856 38.9467 182.096 38.2C180.35 37.44 178.863 36.4 177.636 35.08C176.423 33.7467 175.49 32.1733 174.836 30.36C174.183 28.5333 173.856 26.5533 173.856 24.42C173.856 22.2467 174.21 20.2533 174.916 18.44C175.623 16.6133 176.616 15.04 177.896 13.72C179.176 12.4 180.71 11.3733 182.496 10.64C184.283 9.90667 186.25 9.54 188.396 9.54C189.49 9.54 190.516 9.64 191.476 9.84C192.45 10.0267 193.356 10.2933 194.196 10.64C195.036 10.9733 195.81 11.38 196.516 11.86C197.223 12.34 197.85 12.86 198.396 13.42L196.116 16.48C195.97 16.6667 195.796 16.84 195.596 17C195.396 17.1467 195.116 17.22 194.756 17.22C194.516 17.22 194.29 17.1667 194.076 17.06C193.863 16.9533 193.636 16.8267 193.396 16.68C193.156 16.52 192.89 16.3533 192.596 16.18C192.316 15.9933 191.976 15.8267 191.576 15.68C191.19 15.52 190.73 15.3867 190.196 15.28C189.676 15.1733 189.063 15.12 188.356 15.12C187.236 15.12 186.21 15.3267 185.276 15.74C184.356 16.1533 183.556 16.76 182.876 17.56C182.21 18.3467 181.69 19.32 181.316 20.48C180.956 21.6267 180.776 22.94 180.776 24.42C180.776 25.9133 180.976 27.24 181.376 28.4C181.79 29.56 182.343 30.54 183.036 31.34C183.743 32.1267 184.563 32.7267 185.496 33.14C186.43 33.5533 187.43 33.76 188.496 33.76C189.11 33.76 189.67 33.7333 190.176 33.68C190.683 33.6133 191.156 33.5133 191.596 33.38C192.036 33.2333 192.45 33.0467 192.836 32.82C193.223 32.58 193.616 32.28 194.016 31.92C194.176 31.7867 194.35 31.68 194.536 31.6C194.723 31.5067 194.916 31.46 195.116 31.46ZM208.487 15.06V21.86H217.647V26.86H208.487V33.8H220.447V39H201.687V9.86H220.447V15.06H208.487ZM234.897 24.16C236.657 24.16 237.924 23.74 238.697 22.9C239.47 22.06 239.857 20.8867 239.857 19.38C239.857 18.7133 239.757 18.1067 239.557 17.56C239.357 17.0133 239.05 16.5467 238.637 16.16C238.237 15.76 237.724 15.4533 237.097 15.24C236.484 15.0267 235.75 14.92 234.897 14.92H231.377V24.16H234.897ZM234.897 9.86C236.95 9.86 238.71 10.1067 240.177 10.6C241.657 11.08 242.87 11.7467 243.817 12.6C244.777 13.4533 245.484 14.46 245.937 15.62C246.39 16.78 246.617 18.0333 246.617 19.38C246.617 20.8333 246.384 22.1667 245.917 23.38C245.45 24.5933 244.737 25.6333 243.777 26.5C242.817 27.3667 241.597 28.0467 240.117 28.54C238.65 29.02 236.91 29.26 234.897 29.26H231.377V39H224.617V9.86H234.897ZM261.567 33.9C262.46 33.9 263.187 33.7867 263.747 33.56C264.32 33.3333 264.767 33.04 265.087 32.68C265.407 32.32 265.627 31.9133 265.747 31.46C265.867 31.0067 265.927 30.5467 265.927 30.08C265.927 29.5467 265.853 29.0667 265.707 28.64C265.573 28.2133 265.333 27.8533 264.987 27.56C264.653 27.2667 264.207 27.04 263.647 26.88C263.087 26.72 262.38 26.64 261.527 26.64H256.807V33.9H261.567ZM256.807 14.92V22.12H260.327C261.073 22.12 261.747 22.0667 262.347 21.96C262.947 21.8533 263.453 21.6667 263.867 21.4C264.293 21.1333 264.613 20.7667 264.827 20.3C265.053 19.8333 265.167 19.2467 265.167 18.54C265.167 17.8467 265.08 17.2733 264.907 16.82C264.733 16.3533 264.467 15.98 264.107 15.7C263.747 15.42 263.287 15.22 262.727 15.1C262.18 14.98 261.527 14.92 260.767 14.92H256.807ZM260.767 9.86C262.78 9.86 264.493 10.0467 265.907 10.42C267.32 10.7933 268.473 11.32 269.367 12C270.26 12.68 270.907 13.5067 271.307 14.48C271.72 15.4533 271.927 16.54 271.927 17.74C271.927 18.3933 271.833 19.0267 271.647 19.64C271.46 20.24 271.167 20.8067 270.767 21.34C270.367 21.86 269.853 22.34 269.227 22.78C268.6 23.22 267.847 23.6 266.967 23.92C268.887 24.3867 270.307 25.14 271.227 26.18C272.147 27.22 272.607 28.5667 272.607 30.22C272.607 31.46 272.367 32.6133 271.887 33.68C271.407 34.7467 270.7 35.68 269.767 36.48C268.847 37.2667 267.707 37.8867 266.347 38.34C264.987 38.78 263.433 39 261.687 39H250.047V9.86H260.767ZM302.283 9.86V39H295.483V22.68C295.483 21.92 295.503 21.12 295.543 20.28C295.597 19.4267 295.69 18.52 295.823 17.56C295.517 18.4133 295.183 19.2067 294.823 19.94C294.463 20.66 294.11 21.2933 293.763 21.84L284.903 36.98C284.757 37.22 284.577 37.46 284.363 37.7C284.163 37.94 283.937 38.16 283.683 38.36C283.43 38.5467 283.157 38.7 282.863 38.82C282.57 38.94 282.263 39 281.943 39H276.843V9.86H283.643V26.16C283.643 26.92 283.623 27.7267 283.583 28.58C283.543 29.42 283.45 30.32 283.303 31.28C283.61 30.44 283.943 29.66 284.303 28.94C284.663 28.2067 285.017 27.5667 285.363 27.02L294.223 11.88C294.37 11.64 294.543 11.4 294.743 11.16C294.957 10.92 295.19 10.7067 295.443 10.52C295.697 10.32 295.97 10.16 296.263 10.04C296.557 9.92 296.863 9.86 297.183 9.86H302.283ZM327.577 31.46C327.737 31.46 327.897 31.4933 328.057 31.56C328.217 31.6133 328.371 31.7133 328.517 31.86L331.197 34.68C330.024 36.2133 328.551 37.3733 326.777 38.16C325.017 38.9333 322.931 39.32 320.517 39.32C318.304 39.32 316.317 38.9467 314.557 38.2C312.811 37.44 311.324 36.4 310.097 35.08C308.884 33.7467 307.951 32.1733 307.297 30.36C306.644 28.5333 306.317 26.5533 306.317 24.42C306.317 22.2467 306.671 20.2533 307.377 18.44C308.084 16.6133 309.077 15.04 310.357 13.72C311.637 12.4 313.171 11.3733 314.957 10.64C316.744 9.90667 318.711 9.54 320.857 9.54C321.951 9.54 322.977 9.64 323.937 9.84C324.911 10.0267 325.817 10.2933 326.657 10.64C327.497 10.9733 328.271 11.38 328.977 11.86C329.684 12.34 330.311 12.86 330.857 13.42L328.577 16.48C328.431 16.6667 328.257 16.84 328.057 17C327.857 17.1467 327.577 17.22 327.217 17.22C326.977 17.22 326.751 17.1667 326.537 17.06C326.324 16.9533 326.097 16.8267 325.857 16.68C325.617 16.52 325.351 16.3533 325.057 16.18C324.777 15.9933 324.437 15.8267 324.037 15.68C323.651 15.52 323.191 15.3867 322.657 15.28C322.137 15.1733 321.524 15.12 320.817 15.12C319.697 15.12 318.671 15.3267 317.737 15.74C316.817 16.1533 316.017 16.76 315.337 17.56C314.671 18.3467 314.151 19.32 313.777 20.48C313.417 21.6267 313.237 22.94 313.237 24.42C313.237 25.9133 313.437 27.24 313.837 28.4C314.251 29.56 314.804 30.54 315.497 31.34C316.204 32.1267 317.024 32.7267 317.957 33.14C318.891 33.5533 319.891 33.76 320.957 33.76C321.571 33.76 322.131 33.7333 322.637 33.68C323.144 33.6133 323.617 33.5133 324.057 33.38C324.497 33.2333 324.911 33.0467 325.297 32.82C325.684 32.58 326.077 32.28 326.477 31.92C326.637 31.7867 326.811 31.68 326.997 31.6C327.184 31.5067 327.377 31.46 327.577 31.46Z" fill="black"/>
</svg>
