<svg width="30" height="30" viewBox="0 0 30 30" fill="none" xmlns="http://www.w3.org/2000/svg">
<g clip-path="url(#clip0_4_53)">
<path d="M18.5329 17.5698L18.0452 17.3469C16.8401 16.7962 15.71 16.0945 14.6819 15.2587L14.6759 15.2538L14.6701 15.2487C13.6684 14.3814 12.7811 13.3903 12.0295 12.2992L11.7199 11.8496L12.1948 11.5805L12.694 11.2977C13.0712 11.0684 13.3509 10.7083 13.4797 10.286C13.609 9.86196 13.5771 9.4051 13.39 9.0032C13.3899 9.00289 13.3897 9.00258 13.3896 9.00226L18.5329 17.5698ZM18.5329 17.5698L18.7212 17.0677L18.9261 16.5216C19.0859 16.1085 19.3926 15.769 19.7874 15.5682C20.1822 15.3674 20.6372 15.3194 21.0651 15.4335C21.5911 15.5797 22.1266 15.6894 22.6678 15.7617C22.7038 15.7666 22.745 15.7731 22.79 15.7801C22.9838 15.8102 23.2504 15.8518 23.502 15.8384C24.1608 15.9189 24.7736 16.2196 25.2405 16.6923C25.717 17.1746 26.0125 17.8065 26.0773 18.4813L26.3775 21.9124L26.3776 21.913C26.4143 22.3266 26.3632 22.7432 26.2276 23.1356C26.0921 23.528 25.8751 23.8873 25.591 24.19C25.0944 24.7167 24.4213 25.042 23.7 25.1041L23.6807 25.1057L23.6615 25.1089C23.5432 25.1284 23.4237 25.1392 23.3039 25.1411C18.6018 24.9376 14.0976 23.1901 10.4886 20.1688C6.88262 17.1361 4.37794 12.9985 3.3629 8.39752L3.36291 8.39752L3.36222 8.3945C3.26803 7.9798 3.26473 7.54962 3.35255 7.13353C3.44032 6.71769 3.61701 6.32577 3.87051 5.98465C4.11919 5.65253 4.43523 5.37668 4.79792 5.17516C5.16084 4.97351 5.56228 4.85085 5.97591 4.81521L5.97657 4.81515L9.4211 4.51379L9.4211 4.51385L9.42834 4.51311C10.1267 4.44177 10.8275 4.6221 11.4047 5.02164C11.9795 5.41959 12.3941 6.00896 12.5743 6.68431C12.633 6.94208 12.7047 7.21222 12.7881 7.47192L18.5329 17.5698ZM25.0909 13.5956L25.1825 13.5876C25.4691 13.5637 25.7362 13.4332 25.9313 13.2218C26.1263 13.0105 26.2349 12.7337 26.2357 12.4461M25.0909 13.5956L25.0906 13.0956C25.0844 13.0956 25.0782 13.0955 25.072 13.0954M25.0909 13.5956L25.0473 13.0975L25.072 13.0954M25.0909 13.5956L26.2357 12.4461M25.072 13.0954L25.1389 13.0895L25.1409 13.0893C25.3028 13.0758 25.4537 13.0021 25.5638 12.8828C25.6695 12.7682 25.7303 12.6195 25.7354 12.464M25.072 13.0954C24.907 13.0907 24.7497 13.0233 24.6324 12.9065L24.2795 13.2608L24.6324 12.9065C24.5107 12.7853 24.442 12.6208 24.4414 12.4491L24.4414 12.4281L24.4395 12.4072L24.4394 12.406L24.4393 12.4048L24.4392 12.4036L24.4391 12.4024L24.439 12.4012L24.4389 12.4L24.4388 12.3988L24.4387 12.3976L24.4386 12.3964L24.4385 12.3952L24.4384 12.394L24.4383 12.3928L24.4382 12.3916L24.438 12.3904L24.4379 12.3892L24.4378 12.3879L24.4377 12.3867L24.4376 12.3855L24.4375 12.3843L24.4374 12.3831L24.4373 12.3819L24.4372 12.3807L24.4371 12.3795L24.437 12.3783L24.4369 12.3771L24.4368 12.3759L24.4367 12.3747L24.4366 12.3735L24.4365 12.3723L24.4364 12.3711L24.4363 12.3699L24.4362 12.3687L24.4361 12.3675L24.4359 12.3663L24.4358 12.3651L24.4357 12.3639L24.4356 12.3627L24.4355 12.3615L24.4354 12.3603L24.4353 12.3591L24.4352 12.358L24.4351 12.3568L24.435 12.3556L24.4349 12.3544L24.4348 12.3532L24.4347 12.352L24.4346 12.3508L24.4345 12.3496L24.4344 12.3484L24.4343 12.3472L24.4342 12.346L24.4341 12.3448L24.434 12.3436L24.4339 12.3424L24.4338 12.3412L24.4336 12.34L24.4335 12.3388L24.4334 12.3376L24.4333 12.3364L24.4332 12.3352L24.4331 12.3341L24.433 12.3329L24.4329 12.3317L24.4328 12.3305L24.4327 12.3293L24.4326 12.3281L24.4325 12.3269L24.4324 12.3257L24.4323 12.3245L24.4322 12.3233L24.4321 12.3221L24.432 12.3209L24.4319 12.3198L24.4318 12.3186L24.4317 12.3174L24.4316 12.3162L24.4315 12.315L24.4314 12.3138L24.4312 12.3126L24.4311 12.3114L24.431 12.3102L24.4309 12.309L24.4308 12.3079L24.4307 12.3067L24.4306 12.3055L24.4305 12.3043L24.4304 12.3031L24.4303 12.3019L24.4302 12.3007L24.4301 12.2995L24.43 12.2984L24.4299 12.2972L24.4298 12.296L24.4297 12.2948L24.4296 12.2936L24.4295 12.2924L24.4294 12.2912L24.4293 12.29L24.4292 12.2889L24.4291 12.2877L24.429 12.2865L24.4289 12.2853L24.4288 12.2841L24.4287 12.2829L24.4285 12.2817L24.4284 12.2806L24.4283 12.2794L24.4282 12.2782L24.4281 12.277L24.428 12.2758L24.4279 12.2746L24.4278 12.2735L24.4277 12.2723L24.4276 12.2711L24.4275 12.2699L24.4274 12.2687L24.4273 12.2675L24.4272 12.2664L24.4271 12.2652L24.427 12.264L24.4269 12.2628L24.4268 12.2616L24.4267 12.2604L24.4266 12.2593L24.4265 12.2581L24.4264 12.2569L24.4263 12.2557L24.4262 12.2545L24.4261 12.2533L24.426 12.2522L24.4259 12.251L24.4258 12.2498L24.4256 12.2486L24.4255 12.2474L24.4254 12.2463L24.4253 12.2451L24.4252 12.2439L24.4251 12.2427L24.425 12.2415L24.4249 12.2404L24.4248 12.2392L24.4247 12.238L24.4246 12.2368L24.4245 12.2356L24.4244 12.2345L24.4243 12.2333L24.4242 12.2321L24.4241 12.2309L24.424 12.2297L24.4239 12.2286L24.4238 12.2274L24.4237 12.2262L24.4236 12.225L24.4235 12.2238L24.4234 12.2227L24.4233 12.2215L24.4232 12.2203L24.4231 12.2191L24.423 12.2179L24.4229 12.2168L24.4228 12.2156L24.4227 12.2144L24.4226 12.2132L24.4225 12.2121L24.4223 12.2109L24.4222 12.2097L24.4221 12.2085L24.422 12.2073L24.4219 12.2062L24.4218 12.205L24.4217 12.2038L24.4216 12.2026L24.4215 12.2015L24.4214 12.2003L24.4213 12.1991L24.4212 12.1979L24.4211 12.1968L24.421 12.1956L24.4209 12.1944L24.4208 12.1932L24.4207 12.192L24.4206 12.1909L24.4205 12.1897L24.4204 12.1885L24.4203 12.1873L24.4202 12.1862L24.4201 12.185L24.42 12.1838L24.4199 12.1826L24.4198 12.1815L24.4197 12.1803L24.4196 12.1791L24.4195 12.1779L24.4194 12.1768L24.4193 12.1756L24.4192 12.1744L24.4191 12.1732L24.419 12.1721L24.4188 12.1709L24.4187 12.1697L24.4186 12.1685L24.4185 12.1674L24.4184 12.1662L24.4183 12.165L24.4182 12.1638L24.4181 12.1627L24.418 12.1615L24.4179 12.1603L24.4178 12.1591L24.4177 12.158L24.4176 12.1568L24.4175 12.1556L24.4174 12.1544L24.4173 12.1533L24.4172 12.1521L24.4171 12.1509L24.417 12.1497L24.4169 12.1486L24.4168 12.1474L24.4167 12.1462L24.4166 12.145L24.4165 12.1439L24.4164 12.1427L24.4163 12.1415L24.4162 12.1404L24.4161 12.1392L24.416 12.138L24.4159 12.1368L24.4158 12.1357L24.4157 12.1345L24.4156 12.1333L24.4155 12.1321L24.4154 12.131L24.4153 12.1298L24.4152 12.1286L24.415 12.1274L24.4149 12.1263L24.4148 12.1251L24.4147 12.1239L24.4146 12.1227L24.4145 12.1216L24.4144 12.1204L24.4143 12.1192L24.4142 12.1181L24.4141 12.1169L24.414 12.1157L24.4139 12.1145L24.4138 12.1134L24.4137 12.1122L24.4136 12.111L24.4135 12.1098L24.4134 12.1087L24.4133 12.1075L24.4132 12.1063L24.4131 12.1051L24.413 12.104L24.4129 12.1028L24.4128 12.1016L24.4127 12.1005L24.4126 12.0993L24.4125 12.0981L24.4124 12.0969L24.4123 12.0958L24.4122 12.0946L24.4121 12.0934L24.412 12.0922L24.4119 12.0911L24.4118 12.0899L24.4117 12.0887L24.4116 12.0875L24.4115 12.0864L24.4114 12.0852L24.4112 12.084L24.4111 12.0828L24.411 12.0817L24.4109 12.0805L24.4108 12.0793L24.4107 12.0782L24.4106 12.077L24.4105 12.0758L24.4104 12.0746L24.4103 12.0735L24.4102 12.0723L24.4101 12.0711L24.41 12.0699L24.4099 12.0688L24.4098 12.0676L24.4097 12.0664L24.4096 12.0652L24.4095 12.0641L24.4094 12.0629L24.4093 12.0617L24.4092 12.0605L24.4091 12.0594L24.409 12.0582L24.4089 12.057L24.4088 12.0558L24.4087 12.0547L24.4086 12.0535L24.4085 12.0523L24.4084 12.0512L24.4083 12.05L24.4082 12.0488L24.4081 12.0476L24.408 12.0465L24.4079 12.0453L24.4078 12.0441L24.4077 12.0429L24.4076 12.0418L24.4074 12.0406L24.4073 12.0394L24.4072 12.0382L24.4071 12.0371L24.407 12.0359L24.4069 12.0347L24.4068 12.0335L24.4067 12.0324L24.4066 12.0312L24.4065 12.03L24.4064 12.0288L24.4063 12.0277L24.4062 12.0265L24.4061 12.0253L24.406 12.0241L24.4059 12.0229L24.4058 12.0218L24.4057 12.0206L24.4056 12.0194L24.4055 12.0182L24.4054 12.0171L24.4053 12.0159L24.4052 12.0147L24.4051 12.0135L24.405 12.0124L24.4049 12.0112L24.4048 12.01L24.4047 12.0088L24.4046 12.0077L24.4045 12.0065L24.4044 12.0053L24.4043 12.0041L24.4042 12.0029L24.4041 12.0018L24.404 12.0006L24.4038 11.9994L24.4037 11.9982L24.4036 11.9971L24.4035 11.9959L24.4034 11.9947L24.4033 11.9935L24.4032 11.9923L24.4031 11.9912L24.403 11.99L24.4029 11.9888L24.4028 11.9876L24.4027 11.9865L24.4026 11.9853L24.4025 11.9841L24.4024 11.9829L24.4023 11.9817L24.4022 11.9806L24.4021 11.9794L24.402 11.9782L24.4019 11.977L24.4018 11.9758L24.4017 11.9747L24.4016 11.9735L24.4015 11.9723L24.4014 11.9711L24.4013 11.9699L24.4012 11.9688L24.4011 11.9676L24.401 11.9664L24.4009 11.9652L24.4008 11.964L24.4006 11.9629L24.4005 11.9617L24.4004 11.9605L24.4003 11.9593L24.4002 11.9581L24.4001 11.957L24.4 11.9558L24.3999 11.9546L24.3998 11.9534L24.3997 11.9522L24.3996 11.9511L24.3995 11.9499L24.3994 11.9487L24.3993 11.9475L24.3992 11.9463L24.3991 11.9451L24.399 11.944L24.3989 11.9428L24.3988 11.9416L24.3987 11.9404L24.3986 11.9392L24.3985 11.938L24.3984 11.9369L24.3983 11.9357L24.3982 11.9345L24.3981 11.9333L24.398 11.9321L24.3979 11.9309L24.3978 11.9298L24.3976 11.9286L24.3975 11.9274L24.3974 11.9262L24.3973 11.925L24.3972 11.9238L24.3971 11.9226L24.397 11.9215L24.3969 11.9203L24.3968 11.9191L24.3967 11.9179L24.3966 11.9167L24.3965 11.9155L24.3964 11.9143L24.3963 11.9132L24.3962 11.912L24.3961 11.9108L24.396 11.9096L24.3959 11.9084L24.3958 11.9072L24.3957 11.906L24.3956 11.9048L24.3955 11.9037L24.3954 11.9025L24.3953 11.9013L24.3952 11.9001L24.3951 11.8989L24.3949 11.8977L24.3948 11.8965L24.3947 11.8953L24.3946 11.8941L24.3945 11.893L24.3944 11.8918L24.3943 11.8906L24.3942 11.8894L24.3941 11.8882L24.394 11.887L24.3939 11.8858L24.3938 11.8846L24.3937 11.8834L24.3936 11.8822L24.3935 11.881L24.3934 11.8799L24.3933 11.8787L24.3932 11.8775L24.3931 11.8763L24.393 11.8751L24.3929 11.8739L24.3928 11.8727L24.3927 11.8715L24.3926 11.8703L24.3924 11.8691L24.3923 11.8679L24.3922 11.8667L24.3921 11.8655L24.392 11.8643L24.3919 11.8631L24.3918 11.862L24.3917 11.8608L24.3916 11.8596L24.3915 11.8584L24.3914 11.8572L24.3913 11.856L24.3912 11.8548L24.3911 11.8536L24.391 11.8524L24.3909 11.8512L24.3908 11.85L24.3907 11.8488L24.3906 11.8476L24.3905 11.8464L24.3904 11.8452L24.3903 11.844L24.3901 11.8428L24.39 11.8416L24.3899 11.8404L24.3898 11.8392L24.3897 11.838L24.3896 11.8368L24.3895 11.8356L24.3894 11.8344L24.3893 11.8332L24.3892 11.832L24.3891 11.8308L24.389 11.8296L24.3889 11.8284L24.3888 11.8272L24.3887 11.826L24.3886 11.8248L24.3885 11.8236L24.3884 11.8224L24.3883 11.8212L24.3881 11.82L24.388 11.8188L24.3879 11.8176L24.3878 11.8164L24.3877 11.8152L24.3876 11.814L24.3875 11.8128L24.3874 11.8116L24.3873 11.8104L24.3872 11.8092L24.3871 11.808L24.387 11.8067L24.3869 11.8055L24.3868 11.8043L24.3867 11.8031L24.3866 11.8019L24.3865 11.8007C24.2156 9.84759 23.2758 8.04234 21.7739 6.7821C20.272 5.52185 18.331 4.90986 16.3779 5.08073L15.7714 5.1338L15.7503 5.13564L15.7294 5.13928C15.5588 5.16892 15.3834 5.12959 15.2418 5.02992C15.1002 4.93025 15.004 4.77842 14.9743 4.60782C14.9447 4.43723 14.984 4.26184 15.0837 4.12025C15.1799 3.98363 15.3246 3.88927 15.4879 3.85618L15.4885 3.85612L15.49 3.85599L15.4916 3.85585L15.4931 3.85572L15.4947 3.85558L15.4962 3.85545L15.4978 3.85531L15.4993 3.85518L15.5008 3.85504L15.5024 3.85491L15.5039 3.85477L15.5055 3.85463L15.507 3.8545L15.5086 3.85436L15.5101 3.85423L15.5117 3.85409L15.5132 3.85396L15.5148 3.85382L15.5163 3.85369L15.5179 3.85355L15.5194 3.85341L15.521 3.85328L15.5225 3.85314L15.5241 3.85301L15.5257 3.85287L15.5272 3.85273L15.5288 3.8526L15.5303 3.85246L15.5319 3.85233L15.5334 3.85219L15.535 3.85206L15.5365 3.85192L15.5381 3.85178L15.5396 3.85165L15.5412 3.85151L15.5427 3.85138L15.5443 3.85124L15.5458 3.8511L15.5474 3.85097L15.549 3.85083L15.5505 3.8507L15.5521 3.85056L15.5536 3.85042L15.5552 3.85029L15.5567 3.85015L15.5583 3.85002L15.5598 3.84988L15.5614 3.84974L15.563 3.84961L15.5645 3.84947L15.5661 3.84933L15.5676 3.8492L15.5692 3.84906L15.5707 3.84893L15.5723 3.84879L15.5739 3.84865L15.5754 3.84852L15.577 3.84838L15.5785 3.84824L15.5801 3.84811L15.5817 3.84797L15.5832 3.84783L15.5848 3.8477L15.5863 3.84756L15.5879 3.84743L15.5895 3.84729L15.591 3.84715L15.5926 3.84702L15.5941 3.84688L15.5957 3.84674L15.5973 3.84661L15.5988 3.84647L15.6004 3.84633L15.6019 3.8462L15.6035 3.84606L15.6051 3.84592L15.6066 3.84579L15.6082 3.84565L15.6097 3.84551L15.6113 3.84538L15.6129 3.84524L15.6144 3.8451L15.616 3.84497L15.6176 3.84483L15.6191 3.84469L15.6207 3.84456L15.6223 3.84442L15.6238 3.84428L15.6254 3.84415L15.6269 3.84401L15.6285 3.84387L15.6301 3.84374L15.6316 3.8436L15.6332 3.84346L15.6348 3.84332L15.6363 3.84319L15.6379 3.84305L15.6395 3.84291L15.641 3.84278L15.6426 3.84264L15.6442 3.8425L15.6457 3.84237L15.6473 3.84223L15.6489 3.84209L15.6504 3.84195L15.652 3.84182L15.6536 3.84168L15.6551 3.84154L15.6567 3.84141L15.6583 3.84127L15.6598 3.84113L15.6614 3.841L15.663 3.84086L15.6645 3.84072L15.6661 3.84058L15.6677 3.84045L15.6692 3.84031L15.6708 3.84017L15.6724 3.84004L15.6739 3.8399L15.6755 3.83976L15.6771 3.83962L15.6786 3.83949L15.6802 3.83935L15.6818 3.83921L15.6833 3.83907L15.6849 3.83894L15.6865 3.8388L15.688 3.83866L15.6896 3.83853L15.6912 3.83839L15.6928 3.83825L15.6943 3.83811L15.6959 3.83798L15.6975 3.83784L15.699 3.8377L15.7006 3.83756L15.7022 3.83743L15.7037 3.83729L15.7053 3.83715L15.7069 3.83701L15.7085 3.83688L15.71 3.83674L15.7116 3.8366L15.7132 3.83646L15.7147 3.83633L15.7163 3.83619L15.7179 3.83605L15.7195 3.83591L15.721 3.83578L15.7226 3.83564L15.7242 3.8355L15.7257 3.83536L15.7273 3.83523L15.7289 3.83509L15.7305 3.83495L15.732 3.83481L15.7336 3.83468L15.7352 3.83454L15.7367 3.8344L15.7383 3.83426L15.7399 3.83413L15.7415 3.83399L15.743 3.83385L15.7446 3.83371L15.7462 3.83358L15.7478 3.83344L15.7493 3.8333L15.7509 3.83316L15.7525 3.83303L15.754 3.83289L15.7556 3.83275L15.7572 3.83261L15.7588 3.83248L15.7603 3.83234L15.7619 3.8322L15.7635 3.83206L15.7651 3.83192L15.7666 3.83179L15.7682 3.83165L15.7698 3.83151L15.7714 3.83137L15.7729 3.83124L15.7745 3.8311L15.7761 3.83096L15.7777 3.83082L15.7792 3.83069L15.7808 3.83055L15.7824 3.83041L15.784 3.83027L15.7855 3.83013L15.7871 3.83L15.7887 3.82986L15.7902 3.82972L15.7918 3.82958L15.7934 3.82945L15.795 3.82931L15.7965 3.82917L15.7981 3.82903L15.7997 3.82889L15.8013 3.82876L15.8028 3.82862L15.8044 3.82848L15.806 3.82834L15.8076 3.82821L15.8091 3.82807L15.8107 3.82793L15.8123 3.82779L15.8139 3.82765L15.8154 3.82752L15.817 3.82738L15.8186 3.82724L15.8202 3.8271L15.8217 3.82697L15.8233 3.82683L15.8249 3.82669L15.8265 3.82655L15.8281 3.82641L15.8296 3.82628L15.8312 3.82614L15.8328 3.826L15.8344 3.82586L15.8359 3.82572L15.8375 3.82559L15.8391 3.82545L15.8407 3.82531L15.8422 3.82517L15.8438 3.82504L15.8454 3.8249L15.847 3.82476L15.8485 3.82462L15.8501 3.82448L15.8517 3.82435L15.8533 3.82421L15.8548 3.82407L15.8564 3.82393L15.858 3.8238L15.8596 3.82366L15.8611 3.82352L15.8627 3.82338L15.8643 3.82324L15.8659 3.82311L15.8674 3.82297L15.869 3.82283L15.8706 3.82269L15.8722 3.82255L15.8737 3.82242L15.8753 3.82228L15.8769 3.82214L15.8785 3.822L15.88 3.82186L15.8816 3.82173L15.8832 3.82159L15.8848 3.82145L15.8864 3.82131L15.8879 3.82118L15.8895 3.82104L15.8911 3.8209L15.8927 3.82076L15.8942 3.82062L15.8958 3.82049L15.8974 3.82035L15.899 3.82021L15.9005 3.82007L15.9021 3.81994L15.9037 3.8198L15.9053 3.81966L15.9068 3.81952L15.9084 3.81938L15.91 3.81925L15.9116 3.81911L15.9131 3.81897L15.9147 3.81883L15.9163 3.81869L15.9179 3.81856L15.9194 3.81842L15.921 3.81828L15.9226 3.81814L15.9242 3.81801L15.9257 3.81787L15.9273 3.81773L15.9289 3.81759L15.9305 3.81745L15.932 3.81732L15.9336 3.81718L15.9352 3.81704L15.9368 3.8169L15.9383 3.81677L15.9399 3.81663L15.9415 3.81649L15.9431 3.81635L15.9446 3.81621L15.9462 3.81608L15.9478 3.81594L15.9494 3.8158L15.9509 3.81566L15.9525 3.81553L15.9541 3.81539L15.9557 3.81525L15.9572 3.81511L15.9588 3.81498L15.9604 3.81484L15.9619 3.8147L15.9635 3.81456L15.9651 3.81442L15.9667 3.81429L15.9682 3.81415L15.9698 3.81401L15.9714 3.81387L15.973 3.81374L15.9745 3.8136L15.9761 3.81346L15.9777 3.81332L15.9793 3.81319L15.9808 3.81305L15.9824 3.81291L15.984 3.81277L15.9855 3.81264L15.9871 3.8125L15.9887 3.81236L15.9903 3.81222L15.9918 3.81208L15.9934 3.81195L15.995 3.81181L15.9966 3.81167L15.9981 3.81153L15.9997 3.8114L16.0013 3.81126L16.0028 3.81112L16.0044 3.81098L16.006 3.81085L16.0076 3.81071L16.0091 3.81057L16.0107 3.81043L16.0123 3.8103L16.0138 3.81016L16.0154 3.81002L16.017 3.80988L16.0186 3.80975L16.0201 3.80961L16.0217 3.80947L16.0233 3.80934L16.0248 3.8092L16.0264 3.80906L16.028 3.80892L16.0295 3.80879L16.0311 3.80865L16.0327 3.80851L16.0343 3.80837L16.0358 3.80824L16.0374 3.8081L16.039 3.80796L16.0405 3.80782L16.0421 3.80769L16.0437 3.80755L16.0452 3.80741L16.0468 3.80728L16.0484 3.80714L16.0499 3.807L16.0515 3.80686L16.0531 3.80673L16.0547 3.80659L16.0562 3.80645L16.0578 3.80631L16.0594 3.80618L16.0609 3.80604L16.0625 3.8059L16.0641 3.80577L16.0656 3.80563L16.0672 3.80549L16.0688 3.80535L16.0703 3.80522L16.0719 3.80508L16.0735 3.80494L16.075 3.80481L16.0766 3.80467L16.0782 3.80453L16.0797 3.8044L16.0813 3.80426L16.0829 3.80412L16.0844 3.80398L16.086 3.80385L16.0876 3.80371L16.0891 3.80357L16.0907 3.80344L16.0923 3.8033L16.0938 3.80316L16.0954 3.80303L16.0969 3.80289L16.0985 3.80275L16.1001 3.80262L16.1016 3.80248L16.1032 3.80234L16.1048 3.8022L16.1063 3.80207L16.1079 3.80193L16.1095 3.80179L16.111 3.80166L16.1126 3.80152L16.1141 3.80138L16.1157 3.80125L16.1173 3.80111L16.1188 3.80097L16.1204 3.80084L16.122 3.8007L16.1235 3.80056L16.1251 3.80043L16.1266 3.80029L16.1282 3.80015L16.1298 3.80002L16.1313 3.79988L16.1329 3.79974L16.1345 3.79961L16.136 3.79947L16.1376 3.79933L16.1391 3.7992L16.1407 3.79906L16.1423 3.79893L16.1438 3.79879L16.1454 3.79865L16.1469 3.79852L16.1485 3.79838L16.15 3.79824L16.1516 3.79811L16.1532 3.79797L16.1547 3.79783L16.1563 3.7977L16.1578 3.79756L16.1594 3.79743L16.161 3.79729L16.1625 3.79715L16.1641 3.79702L16.1656 3.79688L16.1672 3.79674L16.1687 3.79661L16.1703 3.79647L16.1719 3.79634L16.1734 3.7962L16.175 3.79606L16.1765 3.79593L16.1781 3.79579L16.1796 3.79566L16.1812 3.79552L16.1827 3.79538L16.1843 3.79525L16.1858 3.79511L16.1874 3.79498L16.189 3.79484L16.1905 3.7947L16.1921 3.79457L16.1936 3.79443L16.1952 3.7943L16.1967 3.79416L16.1983 3.79402L16.1998 3.79389L16.2014 3.79375L16.2029 3.79362L16.2045 3.79348L16.206 3.79334L16.2076 3.79321L16.2091 3.79307L16.2107 3.79294L16.2122 3.7928L16.2138 3.79267L16.2153 3.79253L16.2169 3.7924L16.2184 3.79226L16.22 3.79212L16.2215 3.79199L16.2231 3.79185L16.2246 3.79172L16.2262 3.79158L16.2277 3.79145L16.2293 3.79131L16.2308 3.79118L16.2324 3.79104L16.2339 3.7909L16.2355 3.79077L16.237 3.79063L16.2386 3.7905L16.2401 3.79036L16.2417 3.79023L16.2432 3.79009L16.2447 3.78996L16.2463 3.78982L16.2478 3.78969L16.2494 3.78955L16.2509 3.78942L16.2525 3.78928L16.254 3.78915L16.2556 3.78901L16.2571 3.78888L16.2586 3.78874L16.2602 3.78861L16.2617 3.78847L16.2633 3.78834L16.2645 3.78823C18.5587 3.59048 20.8376 4.31141 22.6006 5.79267C24.3638 7.27399 25.4668 9.39458 25.6675 11.6886L25.6677 11.6902L25.6678 11.6917L25.668 11.6933L25.6681 11.6948L25.6682 11.6963L25.6684 11.6979L25.6685 11.6994L25.6686 11.701L25.6688 11.7025L25.6689 11.7041L25.669 11.7056L25.6692 11.7072L25.6693 11.7087L25.6694 11.7103L25.6696 11.7118L25.6697 11.7133L25.6698 11.7149L25.67 11.7164L25.6701 11.718L25.6703 11.7195L25.6704 11.7211L25.6705 11.7226L25.6707 11.7242L25.6708 11.7257L25.6709 11.7273L25.6711 11.7288L25.6712 11.7304L25.6713 11.7319L25.6715 11.7335L25.6716 11.735L25.6717 11.7366L25.6719 11.7381L25.672 11.7397L25.6721 11.7412L25.6723 11.7428L25.6724 11.7443L25.6726 11.7459L25.6727 11.7474L25.6728 11.749L25.673 11.7505L25.6731 11.7521L25.6732 11.7536L25.6734 11.7552L25.6735 11.7567L25.6736 11.7583L25.6738 11.7598L25.6739 11.7614L25.6741 11.7629L25.6742 11.7645L25.6743 11.7661L25.6745 11.7676L25.6746 11.7692L25.6747 11.7707L25.6749 11.7723L25.675 11.7738L25.6751 11.7754L25.6753 11.7769L25.6754 11.7785L25.6755 11.78L25.6757 11.7816L25.6758 11.7832L25.676 11.7847L25.6761 11.7863L25.6762 11.7878L25.6764 11.7894L25.6765 11.7909L25.6766 11.7925L25.6768 11.7941L25.6769 11.7956L25.677 11.7972L25.6772 11.7987L25.6773 11.8003L25.6775 11.8018L25.6776 11.8034L25.6777 11.805L25.6779 11.8065L25.678 11.8081L25.6781 11.8096L25.6783 11.8112L25.6784 11.8128L25.6785 11.8143L25.6787 11.8159L25.6788 11.8174L25.679 11.819L25.6791 11.8206L25.6792 11.8221L25.6794 11.8237L25.6795 11.8252L25.6796 11.8268L25.6798 11.8284L25.6799 11.8299L25.68 11.8315L25.6802 11.8331L25.6803 11.8346L25.6805 11.8362L25.6806 11.8377L25.6807 11.8393L25.6809 11.8409L25.681 11.8424L25.6811 11.844L25.6813 11.8456L25.6814 11.8471L25.6816 11.8487L25.6817 11.8502L25.6818 11.8518L25.682 11.8534L25.6821 11.8549L25.6822 11.8565L25.6824 11.8581L25.6825 11.8596L25.6826 11.8612L25.6828 11.8628L25.6829 11.8643L25.6831 11.8659L25.6832 11.8675L25.6833 11.869L25.6835 11.8706L25.6836 11.8722L25.6837 11.8737L25.6839 11.8753L25.684 11.8769L25.6842 11.8784L25.6843 11.88L25.6844 11.8816L25.6846 11.8831L25.6847 11.8847L25.6848 11.8863L25.685 11.8878L25.6851 11.8894L25.6853 11.891L25.6854 11.8925L25.6855 11.8941L25.6857 11.8957L25.6858 11.8972L25.6859 11.8988L25.6861 11.9004L25.6862 11.9019L25.6863 11.9035L25.6865 11.9051L25.6866 11.9066L25.6868 11.9082L25.6869 11.9098L25.687 11.9113L25.6872 11.9129L25.6873 11.9145L25.6874 11.9161L25.6876 11.9176L25.6877 11.9192L25.6879 11.9208L25.688 11.9223L25.6881 11.9239L25.6883 11.9255L25.6884 11.927L25.6885 11.9286L25.6887 11.9302L25.6888 11.9318L25.689 11.9333L25.6891 11.9349L25.6892 11.9365L25.6894 11.938L25.6895 11.9396L25.6896 11.9412L25.6898 11.9428L25.6899 11.9443L25.6901 11.9459L25.6902 11.9475L25.6903 11.949L25.6905 11.9506L25.6906 11.9522L25.6907 11.9538L25.6909 11.9553L25.691 11.9569L25.6912 11.9585L25.6913 11.96L25.6914 11.9616L25.6916 11.9632L25.6917 11.9648L25.6918 11.9663L25.692 11.9679L25.6921 11.9695L25.6923 11.9711L25.6924 11.9726L25.6925 11.9742L25.6927 11.9758L25.6928 11.9773L25.6929 11.9789L25.6931 11.9805L25.6932 11.9821L25.6934 11.9836L25.6935 11.9852L25.6936 11.9868L25.6938 11.9884L25.6939 11.9899L25.694 11.9915L25.6942 11.9931L25.6943 11.9947L25.6945 11.9962L25.6946 11.9978L25.6947 11.9994L25.6949 12.001L25.695 12.0025L25.6951 12.0041L25.6953 12.0057L25.6954 12.0072L25.6956 12.0088L25.6957 12.0104L25.6958 12.012L25.696 12.0135L25.6961 12.0151L25.6963 12.0167L25.6964 12.0183L25.6965 12.0198L25.6967 12.0214L25.6968 12.023L25.6969 12.0246L25.6971 12.0261L25.6972 12.0277L25.6974 12.0293L25.6975 12.0309L25.6976 12.0324L25.6978 12.034L25.6979 12.0356L25.698 12.0372L25.6982 12.0387L25.6983 12.0403L25.6985 12.0419L25.6986 12.0435L25.6987 12.045L25.6989 12.0466L25.699 12.0482L25.6991 12.0498L25.6993 12.0513L25.6994 12.0529L25.6996 12.0545L25.6997 12.0561L25.6998 12.0576L25.7 12.0592L25.7001 12.0608L25.7002 12.0624L25.7004 12.0639L25.7005 12.0655L25.7007 12.0671L25.7008 12.0687L25.7009 12.0703L25.7011 12.0718L25.7012 12.0734L25.7014 12.075L25.7015 12.0766L25.7016 12.0781L25.7018 12.0797L25.7019 12.0813L25.702 12.0829L25.7022 12.0844L25.7023 12.086L25.7025 12.0876L25.7026 12.0892L25.7027 12.0907L25.7029 12.0923L25.703 12.0939L25.7031 12.0955L25.7033 12.097L25.7034 12.0986L25.7036 12.1002L25.7037 12.1018L25.7038 12.1033L25.704 12.1049L25.7041 12.1065L25.7042 12.1081L25.7044 12.1096L25.7045 12.1112L25.7047 12.1128L25.7048 12.1144L25.7049 12.1159L25.7051 12.1175L25.7052 12.1191L25.7053 12.1207L25.7055 12.1223L25.7056 12.1238L25.7058 12.1254L25.7059 12.127L25.706 12.1286L25.7062 12.1301L25.7063 12.1317L25.7065 12.1333L25.7066 12.1349L25.7067 12.1364L25.7069 12.138L25.707 12.1396L25.7071 12.1412L25.7073 12.1427L25.7074 12.1443L25.7076 12.1459L25.7077 12.1475L25.7078 12.149L25.708 12.1506L25.7081 12.1522L25.7082 12.1538L25.7084 12.1553L25.7085 12.1569L25.7087 12.1585L25.7088 12.1601L25.7089 12.1616L25.7091 12.1632L25.7092 12.1648L25.7093 12.1664L25.7095 12.1679L25.7096 12.1695L25.7098 12.1711L25.7099 12.1726L25.71 12.1742L25.7102 12.1758L25.7103 12.1774L25.7104 12.1789L25.7106 12.1805L25.7107 12.1821L25.7109 12.1837L25.711 12.1852L25.7111 12.1868L25.7113 12.1884L25.7114 12.19L25.7115 12.1915L25.7117 12.1931L25.7118 12.1947L25.712 12.1963L25.7121 12.1978L25.7122 12.1994L25.7124 12.201L25.7125 12.2026L25.7126 12.2041L25.7128 12.2057L25.7129 12.2073L25.7131 12.2088L25.7132 12.2104L25.7133 12.212L25.7135 12.2136L25.7136 12.2151L25.7137 12.2167L25.7139 12.2183L25.714 12.2198L25.7142 12.2214L25.7143 12.223L25.7144 12.2246L25.7146 12.2261L25.7147 12.2277L25.7149 12.2293L25.715 12.2309L25.7151 12.2324L25.7153 12.234L25.7154 12.2356L25.7155 12.2371L25.7157 12.2387L25.7158 12.2403L25.7159 12.2419L25.7161 12.2434L25.7162 12.245L25.7164 12.2466L25.7165 12.2481L25.7166 12.2497L25.7168 12.2513L25.7169 12.2528L25.717 12.2544L25.7172 12.256L25.7173 12.2576L25.7175 12.2591L25.7176 12.2607L25.7177 12.2623L25.7179 12.2638L25.718 12.2654L25.7181 12.267L25.7183 12.2685L25.7184 12.2701L25.7186 12.2717L25.7187 12.2732L25.7188 12.2748L25.719 12.2764L25.7191 12.278L25.7192 12.2795L25.7194 12.2811L25.7195 12.2827L25.7197 12.2842L25.7198 12.2858L25.7199 12.2874L25.7201 12.2889L25.7202 12.2905L25.7203 12.2921L25.7205 12.2936L25.7206 12.2952L25.7208 12.2968L25.7209 12.2983L25.721 12.2999L25.7212 12.3015L25.7213 12.303L25.7214 12.3046L25.7216 12.3062L25.7217 12.3077L25.7219 12.3093L25.722 12.3109L25.7221 12.3124L25.7223 12.314L25.7224 12.3156L25.7225 12.3171L25.7227 12.3187L25.7228 12.3203L25.7229 12.3218L25.7231 12.3234L25.7232 12.3249L25.7234 12.3265L25.7235 12.3281L25.7236 12.3296L25.7238 12.3312L25.7239 12.3328L25.724 12.3343L25.7242 12.3359L25.7243 12.3375L25.7245 12.339L25.7246 12.3406L25.7247 12.3421L25.7249 12.3437L25.725 12.3453L25.7251 12.3468L25.7253 12.3484L25.7254 12.35L25.7255 12.3515L25.7257 12.3531L25.7258 12.3546L25.726 12.3562L25.7261 12.3578L25.7262 12.3593L25.7264 12.3609L25.7265 12.3624L25.7266 12.364L25.7268 12.3656L25.7269 12.3671L25.727 12.3687L25.7272 12.3702L25.7273 12.3718L25.7275 12.3734L25.7276 12.3749L25.7277 12.3765L25.7279 12.378L25.728 12.3796L25.7281 12.3812L25.7283 12.3827L25.7284 12.3843L25.7285 12.3858L25.7287 12.3874L25.7288 12.3889L25.729 12.3905L25.7291 12.3921L25.7292 12.3936L25.7294 12.3952L25.7295 12.3967L25.7296 12.3983L25.7298 12.3998L25.7299 12.4014L25.73 12.4029L25.7302 12.4045L25.7303 12.4061L25.7305 12.4076L25.7306 12.4092L25.7307 12.4107L25.7309 12.4123L25.731 12.4138L25.7311 12.4154L25.7313 12.4169L25.7314 12.4185L25.7315 12.42L25.7317 12.4216L25.7318 12.4231L25.7319 12.4247L25.7321 12.4262L25.7322 12.4278L25.7324 12.4294L25.7325 12.4309L25.7326 12.4325L25.7328 12.434L25.7329 12.4356L25.733 12.4371L25.7332 12.4387L25.7333 12.4402L25.7334 12.4418L25.7336 12.4433L25.7337 12.4449L25.7338 12.4464L25.734 12.448L25.7341 12.4495L25.7343 12.4511L25.7344 12.4526L25.7345 12.4541L25.7347 12.4557L25.7348 12.4572L25.7349 12.4588L25.7351 12.4603L25.7352 12.4619L25.7353 12.4634L25.7354 12.464M25.7354 12.464L25.7355 12.465L25.7356 12.4665L25.7357 12.4681L25.7359 12.4696L25.736 12.4712L25.7361 12.4727L25.7363 12.4743L25.7364 12.4758L25.7366 12.4773L25.7367 12.4789L25.7368 12.4804L25.737 12.482L25.7371 12.4835L25.7372 12.4851L25.7374 12.4866L25.7375 12.4881L25.7376 12.4897L26.2357 12.4461M25.7354 12.464C25.7356 12.4576 25.7357 12.4511 25.7357 12.4447L26.2357 12.4461M20.0383 12.6416C19.9065 12.531 19.824 12.3726 19.809 12.2012C19.7443 11.4621 19.3887 10.7789 18.8204 10.302C18.252 9.82512 17.5175 9.59352 16.7784 9.65818C16.607 9.67318 16.4366 9.61947 16.3048 9.50888C16.173 9.39828 16.0906 9.23986 16.0756 9.06846C16.0606 8.89706 16.1143 8.72672 16.2249 8.59492C16.3355 8.46312 16.4939 8.38065 16.6653 8.36565C17.7472 8.271 18.8224 8.61001 19.6544 9.3081C20.4863 10.0062 21.0069 11.0062 21.1015 12.0881C21.1165 12.2595 21.0628 12.4298 20.9522 12.5616C20.8416 12.6934 20.6832 12.7759 20.5118 12.7909C20.3404 12.8059 20.1701 12.7522 20.0383 12.6416Z" fill="#FE4444" stroke="white"/>
</g>
<defs>
<clipPath id="clip0_4_53">
<rect width="27.5696" height="27.5696" fill="white" transform="translate(0 2.40286) rotate(-5)"/>
</clipPath>
</defs>
</svg>
