<svg width="32" height="32" viewBox="0 0 32 32" fill="none" xmlns="http://www.w3.org/2000/svg">
<path opacity="0.1" d="M16 32C24.8366 32 32 24.8366 32 16C32 7.16344 24.8366 0 16 0C7.16344 0 0 7.16344 0 16C0 24.8366 7.16344 32 16 32Z" fill="white"/>
<path d="M16.8005 21.5999C10.6405 21.5999 7.20048 17.3599 7.04048 10.3999H10.0805C10.1605 15.5199 12.4805 17.6799 14.2405 18.1599V10.3999H17.1205V14.7999C18.8805 14.6399 20.7205 12.5599 21.3605 10.3999H24.2405C23.7605 13.1199 21.7605 15.1199 20.3205 15.9999C21.7605 16.6399 24.0805 18.3999 24.9605 21.5999H21.7605C21.0405 19.4399 19.3605 17.8399 17.1205 17.5999V21.5999H16.8005Z" fill="white"/>
</svg>
