<svg width="32" height="32" viewBox="0 0 32 32" fill="none" xmlns="http://www.w3.org/2000/svg">
<rect width="32" height="32" rx="16" fill="#1EA918"/>
<path d="M21.7484 10.328C20.2524 8.82947 18.262 8.00249 16.1423 8C11.7717 8 8.21443 11.5585 8.21443 15.9304C8.21195 17.3244 8.58005 18.6905 9.2721 19.8918L8.14728 24L12.3494 22.8963C13.5053 23.5293 14.811 23.8607 16.1386 23.8607H16.1423C20.5116 23.8607 24.0652 20.3059 24.0664 15.9353C24.0696 13.8181 23.2438 11.8253 21.7484 10.328ZM16.1429 22.5245H16.1392C14.9565 22.5232 13.795 22.2036 12.784 21.6042L12.5446 21.46L10.0512 22.116L10.7153 19.686L10.5586 19.4373C9.89887 18.3889 9.55191 17.1746 9.5544 15.931C9.5544 12.296 12.5092 9.34494 16.1442 9.34494C17.9063 9.34494 19.5578 10.0314 20.7989 11.2737C22.0462 12.5198 22.7308 14.1763 22.7296 15.936C22.7296 19.5685 19.7742 22.5245 16.1429 22.5245Z" fill="white"/>
<path d="M19.7537 17.5882C19.5534 17.4888 18.5816 17.0137 18.3994 16.9434C18.2184 16.8782 18.0872 16.8452 17.956 17.0454C17.8224 17.2419 17.4424 17.6877 17.3255 17.8202C17.2124 17.9526 17.0936 17.9682 16.8971 17.8699C16.7006 17.7704 16.0633 17.5628 15.3053 16.885C14.7165 16.3577 14.3204 15.7104 14.2041 15.5152C14.0885 15.3175 14.1911 15.2093 14.2918 15.1098C14.3807 15.0209 14.4883 14.8778 14.5884 14.7647C14.6879 14.6472 14.7209 14.5657 14.7886 14.432C14.8533 14.3021 14.8203 14.1858 14.7718 14.0869C14.7209 13.9887 14.326 13.0118 14.1588 12.6164C14.0008 12.2315 13.8379 12.2812 13.7154 12.275C13.5985 12.2688 13.4655 12.2688 13.3367 12.2688C13.2031 12.2688 12.9879 12.3173 12.807 12.5175C12.6235 12.7152 12.1124 13.194 12.1124 14.1702C12.1124 15.1452 12.8244 16.0854 12.9239 16.2178C13.0221 16.349 14.3204 18.3493 16.3058 19.2068C16.7796 19.4157 17.1465 19.5345 17.4362 19.6259C17.91 19.7776 18.3397 19.7533 18.6823 19.7036C19.0635 19.6451 19.8531 19.2261 20.0192 18.7609C20.1833 18.2983 20.1833 17.9023 20.1336 17.8196C20.0844 17.7362 19.9532 17.6877 19.7537 17.5882Z" fill="white"/>
</svg>
