<svg width="32" height="32" viewBox="0 0 32 32" fill="none" xmlns="http://www.w3.org/2000/svg">
<circle opacity="0.1" cx="16" cy="16" r="16" fill="white"/>
<path d="M15.9804 11.426C13.4496 11.426 11.3901 13.4633 11.3901 15.9679C11.3901 18.4724 13.4492 20.5097 15.9804 20.5097C18.5113 20.5097 20.5708 18.4724 20.5708 15.9679C20.5708 13.4633 18.5113 11.426 15.9804 11.426ZM15.9804 18.8375C14.3709 18.8375 13.0619 17.5498 13.0619 15.9679C13.0619 14.3859 14.3709 13.0983 15.9804 13.0983C17.5891 13.0983 18.899 14.3859 18.899 15.9679C18.899 17.5503 17.59 18.8375 15.9804 18.8375Z" fill="white"/>
<path d="M19.6972 7.17261H12.2346C9.44328 7.17261 7.17258 9.44375 7.17258 12.2347V19.7657C7.17258 22.5566 9.44328 24.8278 12.2346 24.8278H19.6972C22.4886 24.8278 24.7588 22.5566 24.7588 19.7657V12.2347C24.7588 9.44375 22.4886 7.17261 19.6972 7.17261ZM23.0835 19.7657C23.0835 21.6332 21.5647 23.1524 19.6972 23.1524H12.2346C10.3672 23.1524 8.84749 21.6332 8.84749 19.7657V12.2347C8.84749 10.3677 10.3672 8.84795 12.2346 8.84795H19.6972C21.5647 8.84795 23.0835 10.3677 23.0835 12.2347V19.7657Z" fill="white"/>
<path d="M20.6527 12.3204C21.2491 12.3204 21.7327 11.8369 21.7327 11.2404C21.7327 10.6439 21.2491 10.1604 20.6527 10.1604C20.0562 10.1604 19.5727 10.6439 19.5727 11.2404C19.5727 11.8369 20.0562 12.3204 20.6527 12.3204Z" fill="white"/>
</svg>
