<svg width="109" height="122" viewBox="0 0 109 122" fill="none" xmlns="http://www.w3.org/2000/svg">
<path d="M36.3368 121.636C34.95 121.007 33.4321 120.563 32.2018 119.711C29.3409 117.731 28.0197 114.863 28.0233 111.379C28.0269 101.799 28.0233 92.2191 28.0233 82.6391V81.1358C24.9658 81.1358 22.0431 81.1431 19.124 81.1285C18.5343 81.1285 17.9336 81.103 17.3549 81.0011C16.2921 80.8119 15.5424 79.9237 15.4623 78.8609C15.3858 77.8636 16.081 76.8044 17.0965 76.5059C17.617 76.353 18.1849 76.3021 18.7309 76.2984C21.7738 76.2802 24.8203 76.2875 27.9433 76.2875V63.2168C25.5483 63.2168 23.186 63.2387 20.8238 63.2096C19.2987 63.1877 18.334 62.2923 18.2867 60.9601C18.2358 59.5151 19.2477 58.485 20.8383 58.4596C23.1715 58.4268 25.5045 58.4523 27.9323 58.4523V43.0011C26.0359 43.0011 24.1141 43.0011 22.1923 43.0011C21.679 43.0011 21.1623 43.0193 20.6491 42.9938C19.2659 42.9247 18.3086 41.982 18.2867 40.6825C18.2612 39.3212 19.2258 38.2912 20.6599 38.2657C22.8766 38.2256 25.0932 38.2548 27.3099 38.2511C27.5028 38.2511 27.6921 38.2293 28.0306 38.2075V36.908C28.0306 28.1178 28.0306 19.3312 28.0306 10.541C28.0306 4.22222 32.2674 0.00363985 38.608 0C58.4816 0 78.3552 0 98.2288 0C104.569 0 108.799 4.22222 108.799 10.5483C108.799 44.0385 108.799 77.5323 108.799 111.023C108.799 116.41 106.102 119.947 100.893 121.425C100.751 121.465 100.624 121.564 100.489 121.636H36.3441H36.3368ZM72.6989 81.2268H64.1198C65.3719 85.2998 64.5456 88.6994 61.0732 91.149C58.4198 93.0235 54.5833 92.9653 52.0463 91.0726C48.6903 88.5684 47.8351 85.2306 49.1381 81.2122H32.8571V99.6844H103.987V21.9228H32.8571V38.2475C35.4305 38.2475 37.9201 38.2475 40.4098 38.2475C42.3899 38.2475 43.1141 38.8626 43.4708 40.7808C43.7838 42.4697 44.1151 44.1586 44.4463 45.873C45.0578 45.873 45.5311 45.873 46.0043 45.873C62.1179 45.873 78.2278 45.873 94.3414 45.873C96.7619 45.873 97.7592 47.1142 97.2205 49.4182C94.993 58.9036 92.7435 68.3818 90.5632 77.8781C90.1774 79.5634 89.7332 81.0266 87.7022 81.1722C88.8378 85.6601 87.9315 88.754 84.8813 91.0034C82.3189 92.8961 78.4462 93.0454 75.7527 91.1417C72.2803 88.6921 71.454 85.2925 72.7061 81.2159L72.6989 81.2268ZM49.9352 76.2438C50.2446 76.262 50.4775 76.2839 50.7105 76.2839C62.1505 76.2839 73.587 76.2766 85.0271 76.3057C85.8533 76.3057 86.0825 75.9672 86.2463 75.2611C87.4802 69.9214 88.7541 64.5891 90.0062 59.2494C90.6578 56.4613 91.2911 53.6695 91.9536 50.7941H45.3126C46.8595 59.3004 48.3882 67.7084 49.9388 76.2402L49.9352 76.2438ZM104.031 104.616H32.7842C32.7842 107.033 32.7406 109.366 32.7988 111.696C32.8389 113.214 33.4249 114.535 34.6006 115.561C35.809 116.617 37.2468 116.894 38.7937 116.894C58.5435 116.886 78.297 116.894 98.0468 116.89C98.3234 116.89 98.6 116.897 98.8766 116.875C101.803 116.664 103.856 114.721 104.005 111.794C104.125 109.432 104.031 107.059 104.031 104.616ZM104.049 17.049C104.049 15.0253 104.049 13.0561 104.049 11.087C104.049 6.76283 102.051 4.74999 97.7482 4.74999C78.195 4.74999 58.6418 4.74999 39.0886 4.74999C38.8119 4.74999 38.5352 4.74271 38.2586 4.74999C35.0046 4.84827 32.8534 6.98121 32.7842 10.2389C32.7406 12.2554 32.7733 14.2755 32.7842 16.2956C32.7842 16.554 32.8535 16.8124 32.8863 17.0454H104.056L104.049 17.049ZM45.0433 76.2256C44.2498 71.8688 43.4708 67.5883 42.6955 63.3151H32.8353V76.2256H45.0433ZM41.8074 58.3977C40.8611 53.2254 39.9365 48.1479 39.012 43.0958H32.8425V58.3977H41.8074ZM59.8865 84.4444C59.8974 82.6208 58.5216 81.2013 56.7089 81.1649C54.8271 81.1249 53.3786 82.5299 53.375 84.4044C53.3677 86.2425 54.7325 87.6511 56.5488 87.6802C58.427 87.713 59.8756 86.308 59.8865 84.4444ZM76.943 84.4189C76.943 86.2898 78.3807 87.7021 80.2588 87.6802C82.0787 87.6584 83.4546 86.2607 83.4583 84.4262C83.4619 82.548 82.0241 81.1322 80.146 81.1613C78.3297 81.1904 76.943 82.599 76.943 84.4189Z" fill="#FE4444"/>
<path d="M6.24968 42.9974C4.98301 42.9974 3.72001 43.0193 2.45699 42.9902C1.00833 42.9574 0.0110093 41.9819 8.97543e-05 40.6497C-0.0108298 39.3103 0.975611 38.2838 2.40971 38.262C4.97944 38.2292 7.54906 38.2329 10.1188 38.262C11.5674 38.2766 12.5648 39.2666 12.5757 40.6024C12.5902 41.9819 11.5676 42.9647 10.0461 42.9938C8.78307 43.0193 7.51626 42.9974 6.25323 42.9974H6.24968Z" fill="#FE4444"/>
<path d="M13.5259 60.8873C13.5077 62.2377 12.4448 63.2387 11.0725 63.195C9.79859 63.1549 8.76851 62.0739 8.79035 60.8072C8.81219 59.5624 9.91151 58.4705 11.1527 58.4596C12.4521 58.4486 13.5477 59.5661 13.5259 60.8873Z" fill="#FE4444"/>
<path d="M68.422 107.637C70.0053 107.637 71.585 107.616 73.1684 107.645C74.8027 107.674 75.8655 108.62 75.8983 110.011C75.931 111.379 74.8717 112.409 73.2556 112.427C70.0125 112.468 66.7694 112.468 63.5263 112.427C61.9648 112.409 60.9349 111.43 60.9057 110.102C60.873 108.729 61.9612 107.688 63.5555 107.652C65.1752 107.612 66.7985 107.645 68.4183 107.641L68.422 107.637Z" fill="#FE4444"/>
<path d="M68.5276 8.55359C70.4239 8.55359 72.3203 8.54267 74.2131 8.55359C75.7964 8.56451 76.9138 9.55819 76.9138 10.9231C76.9138 12.2844 75.7999 13.289 74.2166 13.2963C70.4239 13.3109 66.6348 13.3109 62.8421 13.2963C61.2588 13.2927 60.1414 12.2917 60.1414 10.9268C60.1414 9.56547 61.2552 8.56815 62.8385 8.55359C64.7349 8.53903 66.6311 8.55359 68.5238 8.55359H68.5276Z" fill="#FE4444"/>
<path d="M54.6742 10.8722C54.6997 12.2189 53.6477 13.3 52.3192 13.2963C51.0671 13.2927 49.9643 12.2262 49.9243 10.9814C49.8843 9.71473 51.0343 8.55725 52.3265 8.55725C53.6077 8.55725 54.6487 9.58368 54.6742 10.8722Z" fill="#FE4444"/>
<path d="M82.1406 10.9267C82.1406 9.63459 83.1524 8.58631 84.4336 8.5572C85.7294 8.52808 86.8905 9.64915 86.8905 10.9267C86.8905 12.2043 85.7257 13.3254 84.4336 13.2963C83.1524 13.2672 82.1406 12.2189 82.1406 10.9267Z" fill="#FE4444"/>
</svg>
