<svg width="130" height="92" viewBox="0 0 130 92" fill="none" xmlns="http://www.w3.org/2000/svg">
<path d="M0.00355454 64.1303C0.476734 61.9646 0.793394 59.7516 1.45221 57.6441C4.67711 47.3324 11.3489 40.1328 21.3294 35.9979C21.7552 35.8196 22.1811 35.6412 22.7307 35.4155C17.1982 31.3353 14.2646 25.9083 14.301 19.1018C14.3301 13.7294 16.3647 9.05943 20.3103 5.37227C28.1942 -1.99478 40.3621 -1.649 47.6127 5.8964C54.8705 13.4491 55.6058 27.3096 44.9338 35.2372C48.206 37.0571 51.5583 38.9244 55.0889 40.8899C57.6514 38.5531 60.9747 37.1263 64.782 37.1336C68.5456 37.1408 71.8506 38.5022 74.4494 40.8972C77.9218 38.9644 81.285 37.0935 84.6591 35.2154C79.2394 31.1096 76.2511 25.4933 76.5677 18.3702C76.8189 12.732 79.2466 8.08758 83.5526 4.45502C91.5493 -2.29326 103.503 -1.25225 110.564 6.74449C117.217 14.2826 117.41 27.6627 106.979 35.3428C108.842 36.2527 110.768 37.0499 112.551 38.0945C121.876 43.5579 127.405 51.6966 129.189 62.3249C129.673 65.2186 129.957 68.1742 128.847 71.0533C127.584 74.3291 125.269 76.7314 122.514 78.7479C117.494 82.4242 111.801 84.6809 105.887 86.4498C97.1437 89.0669 88.1934 90.4646 79.1156 91.218C70.4018 91.9424 61.6808 92.0188 52.967 91.4182C40.4169 90.5519 28.0268 88.7211 16.3356 83.8C12.9542 82.3768 9.72915 80.4586 6.6644 78.4203C3.28662 76.1745 0.975479 72.9678 0 68.9312C0 67.3297 0 65.7282 0 64.123L0.00355454 64.1303ZM55.4821 62.4196C53.1307 60.2466 51.4855 57.6732 50.7867 54.5284C50.0769 51.3326 50.5465 48.2751 51.7768 45.3451C43.2559 37.8797 29.5155 36.6604 19.6879 42.4477C11.5164 47.2596 6.81737 54.3864 5.31048 63.7481C4.61527 68.0577 5.79449 71.4755 9.31058 74.0416C10.6318 75.0098 11.9823 75.9561 13.4091 76.7569C19.2984 80.0546 25.7117 81.9109 32.2489 83.3632C34.9351 83.9602 37.6504 84.4079 40.3621 84.9247C41.92 72.8805 44.7554 68.6692 55.4821 62.4196ZM89.1798 84.9029C91.7531 84.437 94.2574 84.1094 96.6997 83.5161C100.245 82.6535 103.779 81.7035 107.255 80.5969C111.798 79.1483 116.151 77.2265 119.947 74.2673C122.284 72.4473 124.428 70.3544 124.417 67.1477C124.399 62.2813 123.241 57.6368 120.777 53.4C113.65 41.1483 100.056 35.9579 86.5736 40.3475C83.3159 41.4067 80.3751 43.0811 77.7871 45.3014C80.3751 51.9004 79.1119 57.5859 74.0925 62.456C83.5379 66.9694 88.601 74.3546 89.1798 84.9065V84.9029ZM95.9281 33.5738C103.83 33.5519 110.098 27.2659 110.098 19.3675C110.098 11.4435 103.739 5.13205 95.7898 5.15753C87.9459 5.18301 81.6598 11.5491 81.6889 19.4439C81.7181 27.3387 88.026 33.5956 95.9281 33.5738ZM33.6576 33.5738C41.5597 33.5738 47.8457 27.306 47.8602 19.4075C47.8748 11.52 41.5779 5.17209 33.7231 5.15753C25.7846 5.14297 19.4368 11.4763 19.4513 19.4039C19.4622 27.2951 25.7555 33.5738 33.654 33.5738H33.6576ZM84.0367 85.5872C83.7928 77.7579 80.6152 71.7048 73.7431 68.1196C66.5726 64.3778 59.4787 65.022 53.007 69.9286C47.8821 73.8159 45.6036 79.1811 45.5526 85.5945C58.4377 87.0468 71.1589 87.0504 84.0367 85.5872ZM64.8109 42.324C59.7006 42.3094 55.6385 46.3242 55.6276 51.3981C55.6167 56.5157 59.6061 60.5851 64.6764 60.6288C69.8268 60.6724 73.8997 56.6359 73.9216 51.4709C73.9434 46.3897 69.9104 42.3422 64.8109 42.3276V42.324Z" fill="#FE4444"/>
<path d="M120.344 66.0048C120.25 66.7874 120.271 67.61 120.027 68.3453C119.689 69.379 118.415 69.9941 117.374 69.8048C116.071 69.5682 115.201 68.7092 115.176 67.2679C115.099 62.9619 113.756 59.1255 111.248 55.6386C110.276 54.2845 110.564 52.8213 111.758 51.9623C112.974 51.0851 114.44 51.3908 115.481 52.7958C118.382 56.7159 120.009 61.102 120.344 66.0085V66.0048Z" fill="#FE4444"/>
<path d="M110.062 49.065C110.051 50.4991 109.035 51.5693 107.659 51.5911C106.232 51.6129 105.155 50.5028 105.17 49.025C105.184 47.6018 106.218 46.5099 107.576 46.4808C108.966 46.4516 110.069 47.5982 110.058 49.0687L110.062 49.065Z" fill="#FE4444"/>
</svg>
