<svg width="110" height="111" viewBox="0 0 110 111" fill="none" xmlns="http://www.w3.org/2000/svg">
<mask id="path-1-outside-1_1_41" maskUnits="userSpaceOnUse" x="0" y="0" width="110" height="111" fill="black">
<rect fill="white" width="110" height="111"/>
<path d="M109 41.985V109.073H10.0731C9.88651 108.998 9.70975 108.897 9.51661 108.854C4.54735 107.705 1.01191 103.413 1.00864 98.4342C0.998816 76.6061 0.995542 54.7781 1.00864 32.9467C1.01191 27.2802 5.66691 22.4975 11.3203 22.3731C15.1831 22.2913 19.0525 22.3207 22.9185 22.3567C23.6551 22.3633 24.0381 22.108 24.3916 21.4892C28.0711 15.0665 31.7767 8.65689 35.4791 2.24399C36.2484 0.908376 36.8999 0.734881 38.2224 1.49107C39.9279 2.46659 41.6237 3.4552 43.3259 4.434C45.8695 5.89728 48.413 7.36055 50.986 8.84347C53.2513 6.5749 55.4609 4.36197 57.6706 2.15232C59.1993 0.623567 59.6086 0.617034 61.1177 2.12614C67.6059 8.61434 74.0941 15.096 80.5626 21.6005C81.1061 22.1472 81.6462 22.3666 82.4089 22.3535C85.0801 22.3109 87.7513 22.3338 90.4226 22.3371C92.1052 22.3371 92.5307 22.7692 92.5307 24.4518C92.5307 29.5487 92.5307 34.6457 92.5307 39.7426V40.9865C93.0152 40.9865 93.3917 40.9865 93.7681 40.9865C98.1612 40.9865 102.554 40.9996 106.947 40.9767C107.828 40.9734 108.532 41.2026 108.997 41.9817L109 41.985ZM106.011 90.0637C105.54 90.0637 105.16 90.0637 104.78 90.0637C97.9616 90.0637 91.1428 90.0703 84.324 90.0539C83.3092 90.0539 82.2878 89.9852 81.2795 89.8706C73.1611 88.9475 67.2687 80.649 69.0429 72.6582C70.6011 65.6463 76.3626 61.0076 83.571 60.9945C90.6354 60.9814 97.6997 60.9945 104.764 60.9945C105.17 60.9945 105.576 60.9945 105.998 60.9945V44.0146C105.53 44.0146 105.121 44.0146 104.708 44.0146C98.1711 44.0146 91.6338 44.0146 85.0965 44.0146C60.9867 44.0146 36.8737 44.008 12.764 44.0211C9.74246 44.0211 7.00251 43.3042 4.67828 41.291C4.48514 41.124 4.28219 40.9604 3.95156 40.6854C3.95156 41.183 3.95156 41.4907 3.95156 41.7984C3.95156 60.5002 3.95156 79.2021 3.95156 97.9039C3.95156 102.742 7.33637 106.124 12.1681 106.124C43.0607 106.124 73.9566 106.124 104.849 106.124C105.222 106.124 105.599 106.124 106.011 106.124V90.0605V90.0637ZM106.005 64.0651C105.805 64.0226 105.704 63.9833 105.602 63.9833C98.122 63.9833 90.6354 63.8425 83.1586 64.0193C75.4559 64.2026 70.2476 71.1393 72.0972 78.4262C73.4033 83.5788 78.0125 87.0586 83.6496 87.0783C90.8154 87.1044 97.9812 87.0848 105.144 87.0815C105.415 87.0815 105.687 87.0389 106.001 87.0128V64.0618L106.005 64.0651ZM16.5482 40.9898C18.365 40.9898 19.9461 40.9506 21.5207 41.0062C22.2605 41.0324 22.6337 40.7574 22.9905 40.1289C27.1054 32.9467 31.253 25.7809 35.3973 18.6118C36.1895 17.2402 36.6314 17.0961 38.026 17.7083C40.216 18.6674 42.3831 18.0782 43.8006 16.1369C44.6222 15.0141 45.182 14.8767 46.3703 15.5576C49.3819 17.286 52.3904 19.021 55.3922 20.7658C56.5871 21.4598 56.7573 22.0228 56.2008 23.2832C55.2056 25.5419 55.7851 27.6533 57.7983 29.1264C58.8884 29.9219 59.0226 30.4522 58.3515 31.6209C56.7671 34.3903 55.1598 37.1499 53.5655 39.9161C53.3953 40.2107 53.2546 40.5184 53.0091 40.9898C54.7604 40.9898 56.3612 40.9538 57.9587 41.0062C58.6527 41.0291 59.0161 40.7901 59.3565 40.1944C62.509 34.6817 65.6942 29.1886 68.8662 23.6891C69.0168 23.4305 69.1346 23.1522 69.2819 22.8543C58.6919 16.7393 48.1642 10.657 37.5775 4.54203C30.559 16.7 23.606 28.75 16.5417 40.9898H16.5482ZM53.1204 22.8772C50.5768 21.4107 48.1249 19.9998 45.6861 18.5954C43.5485 20.7461 41.0999 21.5678 38.2224 20.8934C37.5612 20.7396 37.3648 21.1292 37.1127 21.5645C33.5576 27.7319 29.9992 33.896 26.4442 40.0667C26.2969 40.322 26.1888 40.6003 26.0022 40.9931H27.423C33.4987 40.9931 39.5744 40.9931 45.6501 40.9931C46.9137 40.9931 48.4261 41.3826 49.3689 40.8261C50.351 40.2467 50.8027 38.7474 51.4541 37.6311C52.7406 35.428 54.0075 33.2118 55.2777 31.0087C52.9895 28.6812 52.2136 26.0264 53.1138 22.8805L53.1204 22.8772ZM53.7816 10.4442C54.1025 10.6374 54.4233 10.8371 54.7539 11.0269C60.3418 14.2547 65.9363 17.4824 71.5243 20.7134C73.0498 21.594 73.1906 22.1472 72.3035 23.6891C69.1838 29.1003 66.0608 34.5082 62.9378 39.9194C62.7577 40.2336 62.5842 40.5479 62.3387 40.9931C66.5125 40.9931 70.4833 41.0095 74.4509 40.9669C74.8011 40.9636 75.2136 40.6592 75.4886 40.3875C78.5625 37.3464 81.6134 34.2856 84.6676 31.2248C84.8804 31.012 85.0703 30.7698 85.1652 30.6585C76.5066 21.9967 67.9136 13.4035 59.3729 4.85956C57.5823 6.65019 55.7261 8.50631 53.7849 10.4508L53.7816 10.4442ZM22.159 25.3062C18.473 25.3062 14.9932 25.2702 11.5167 25.316C7.46077 25.3684 4.03013 28.8384 3.95484 32.891C3.86973 37.4478 7.2873 40.8916 11.9521 41.0029C12.7738 41.0226 13.2616 40.8065 13.6904 40.0438C15.8542 36.1875 18.09 32.3738 20.303 28.5437C20.8955 27.5191 21.4814 26.4912 22.1623 25.3029L22.159 25.3062ZM84.5891 25.3291C84.5399 25.4077 84.4909 25.483 84.4418 25.5615C85.6693 26.7531 86.9068 27.9349 88.1212 29.1428C89.2244 30.2395 89.2146 30.8614 88.1049 31.9777C85.378 34.7144 82.6446 37.4413 79.9145 40.178C79.7083 40.3842 79.5249 40.6166 79.1975 40.9898C82.4842 40.9898 85.5646 40.9898 88.645 40.9898C88.9167 40.9898 89.1884 40.9506 89.4994 40.9276V25.3324H84.5891V25.3291Z"/>
</mask>
<path d="M109 41.985V109.073H10.0731C9.88651 108.998 9.70975 108.897 9.51661 108.854C4.54735 107.705 1.01191 103.413 1.00864 98.4342C0.998816 76.6061 0.995542 54.7781 1.00864 32.9467C1.01191 27.2802 5.66691 22.4975 11.3203 22.3731C15.1831 22.2913 19.0525 22.3207 22.9185 22.3567C23.6551 22.3633 24.0381 22.108 24.3916 21.4892C28.0711 15.0665 31.7767 8.65689 35.4791 2.24399C36.2484 0.908376 36.8999 0.734881 38.2224 1.49107C39.9279 2.46659 41.6237 3.4552 43.3259 4.434C45.8695 5.89728 48.413 7.36055 50.986 8.84347C53.2513 6.5749 55.4609 4.36197 57.6706 2.15232C59.1993 0.623567 59.6086 0.617034 61.1177 2.12614C67.6059 8.61434 74.0941 15.096 80.5626 21.6005C81.1061 22.1472 81.6462 22.3666 82.4089 22.3535C85.0801 22.3109 87.7513 22.3338 90.4226 22.3371C92.1052 22.3371 92.5307 22.7692 92.5307 24.4518C92.5307 29.5487 92.5307 34.6457 92.5307 39.7426V40.9865C93.0152 40.9865 93.3917 40.9865 93.7681 40.9865C98.1612 40.9865 102.554 40.9996 106.947 40.9767C107.828 40.9734 108.532 41.2026 108.997 41.9817L109 41.985ZM106.011 90.0637C105.54 90.0637 105.16 90.0637 104.78 90.0637C97.9616 90.0637 91.1428 90.0703 84.324 90.0539C83.3092 90.0539 82.2878 89.9852 81.2795 89.8706C73.1611 88.9475 67.2687 80.649 69.0429 72.6582C70.6011 65.6463 76.3626 61.0076 83.571 60.9945C90.6354 60.9814 97.6997 60.9945 104.764 60.9945C105.17 60.9945 105.576 60.9945 105.998 60.9945V44.0146C105.53 44.0146 105.121 44.0146 104.708 44.0146C98.1711 44.0146 91.6338 44.0146 85.0965 44.0146C60.9867 44.0146 36.8737 44.008 12.764 44.0211C9.74246 44.0211 7.00251 43.3042 4.67828 41.291C4.48514 41.124 4.28219 40.9604 3.95156 40.6854C3.95156 41.183 3.95156 41.4907 3.95156 41.7984C3.95156 60.5002 3.95156 79.2021 3.95156 97.9039C3.95156 102.742 7.33637 106.124 12.1681 106.124C43.0607 106.124 73.9566 106.124 104.849 106.124C105.222 106.124 105.599 106.124 106.011 106.124V90.0605V90.0637ZM106.005 64.0651C105.805 64.0226 105.704 63.9833 105.602 63.9833C98.122 63.9833 90.6354 63.8425 83.1586 64.0193C75.4559 64.2026 70.2476 71.1393 72.0972 78.4262C73.4033 83.5788 78.0125 87.0586 83.6496 87.0783C90.8154 87.1044 97.9812 87.0848 105.144 87.0815C105.415 87.0815 105.687 87.0389 106.001 87.0128V64.0618L106.005 64.0651ZM16.5482 40.9898C18.365 40.9898 19.9461 40.9506 21.5207 41.0062C22.2605 41.0324 22.6337 40.7574 22.9905 40.1289C27.1054 32.9467 31.253 25.7809 35.3973 18.6118C36.1895 17.2402 36.6314 17.0961 38.026 17.7083C40.216 18.6674 42.3831 18.0782 43.8006 16.1369C44.6222 15.0141 45.182 14.8767 46.3703 15.5576C49.3819 17.286 52.3904 19.021 55.3922 20.7658C56.5871 21.4598 56.7573 22.0228 56.2008 23.2832C55.2056 25.5419 55.7851 27.6533 57.7983 29.1264C58.8884 29.9219 59.0226 30.4522 58.3515 31.6209C56.7671 34.3903 55.1598 37.1499 53.5655 39.9161C53.3953 40.2107 53.2546 40.5184 53.0091 40.9898C54.7604 40.9898 56.3612 40.9538 57.9587 41.0062C58.6527 41.0291 59.0161 40.7901 59.3565 40.1944C62.509 34.6817 65.6942 29.1886 68.8662 23.6891C69.0168 23.4305 69.1346 23.1522 69.2819 22.8543C58.6919 16.7393 48.1642 10.657 37.5775 4.54203C30.559 16.7 23.606 28.75 16.5417 40.9898H16.5482ZM53.1204 22.8772C50.5768 21.4107 48.1249 19.9998 45.6861 18.5954C43.5485 20.7461 41.0999 21.5678 38.2224 20.8934C37.5612 20.7396 37.3648 21.1292 37.1127 21.5645C33.5576 27.7319 29.9992 33.896 26.4442 40.0667C26.2969 40.322 26.1888 40.6003 26.0022 40.9931H27.423C33.4987 40.9931 39.5744 40.9931 45.6501 40.9931C46.9137 40.9931 48.4261 41.3826 49.3689 40.8261C50.351 40.2467 50.8027 38.7474 51.4541 37.6311C52.7406 35.428 54.0075 33.2118 55.2777 31.0087C52.9895 28.6812 52.2136 26.0264 53.1138 22.8805L53.1204 22.8772ZM53.7816 10.4442C54.1025 10.6374 54.4233 10.8371 54.7539 11.0269C60.3418 14.2547 65.9363 17.4824 71.5243 20.7134C73.0498 21.594 73.1906 22.1472 72.3035 23.6891C69.1838 29.1003 66.0608 34.5082 62.9378 39.9194C62.7577 40.2336 62.5842 40.5479 62.3387 40.9931C66.5125 40.9931 70.4833 41.0095 74.4509 40.9669C74.8011 40.9636 75.2136 40.6592 75.4886 40.3875C78.5625 37.3464 81.6134 34.2856 84.6676 31.2248C84.8804 31.012 85.0703 30.7698 85.1652 30.6585C76.5066 21.9967 67.9136 13.4035 59.3729 4.85956C57.5823 6.65019 55.7261 8.50631 53.7849 10.4508L53.7816 10.4442ZM22.159 25.3062C18.473 25.3062 14.9932 25.2702 11.5167 25.316C7.46077 25.3684 4.03013 28.8384 3.95484 32.891C3.86973 37.4478 7.2873 40.8916 11.9521 41.0029C12.7738 41.0226 13.2616 40.8065 13.6904 40.0438C15.8542 36.1875 18.09 32.3738 20.303 28.5437C20.8955 27.5191 21.4814 26.4912 22.1623 25.3029L22.159 25.3062ZM84.5891 25.3291C84.5399 25.4077 84.4909 25.483 84.4418 25.5615C85.6693 26.7531 86.9068 27.9349 88.1212 29.1428C89.2244 30.2395 89.2146 30.8614 88.1049 31.9777C85.378 34.7144 82.6446 37.4413 79.9145 40.178C79.7083 40.3842 79.5249 40.6166 79.1975 40.9898C82.4842 40.9898 85.5646 40.9898 88.645 40.9898C88.9167 40.9898 89.1884 40.9506 89.4994 40.9276V25.3324H84.5891V25.3291Z" fill="#FE4444"/>
<path d="M109 41.985V109.073H10.0731C9.88651 108.998 9.70975 108.897 9.51661 108.854C4.54735 107.705 1.01191 103.413 1.00864 98.4342C0.998816 76.6061 0.995542 54.7781 1.00864 32.9467C1.01191 27.2802 5.66691 22.4975 11.3203 22.3731C15.1831 22.2913 19.0525 22.3207 22.9185 22.3567C23.6551 22.3633 24.0381 22.108 24.3916 21.4892C28.0711 15.0665 31.7767 8.65689 35.4791 2.24399C36.2484 0.908376 36.8999 0.734881 38.2224 1.49107C39.9279 2.46659 41.6237 3.4552 43.3259 4.434C45.8695 5.89728 48.413 7.36055 50.986 8.84347C53.2513 6.5749 55.4609 4.36197 57.6706 2.15232C59.1993 0.623567 59.6086 0.617034 61.1177 2.12614C67.6059 8.61434 74.0941 15.096 80.5626 21.6005C81.1061 22.1472 81.6462 22.3666 82.4089 22.3535C85.0801 22.3109 87.7513 22.3338 90.4226 22.3371C92.1052 22.3371 92.5307 22.7692 92.5307 24.4518C92.5307 29.5487 92.5307 34.6457 92.5307 39.7426V40.9865C93.0152 40.9865 93.3917 40.9865 93.7681 40.9865C98.1612 40.9865 102.554 40.9996 106.947 40.9767C107.828 40.9734 108.532 41.2026 108.997 41.9817L109 41.985ZM106.011 90.0637C105.54 90.0637 105.16 90.0637 104.78 90.0637C97.9616 90.0637 91.1428 90.0703 84.324 90.0539C83.3092 90.0539 82.2878 89.9852 81.2795 89.8706C73.1611 88.9475 67.2687 80.649 69.0429 72.6582C70.6011 65.6463 76.3626 61.0076 83.571 60.9945C90.6354 60.9814 97.6997 60.9945 104.764 60.9945C105.17 60.9945 105.576 60.9945 105.998 60.9945V44.0146C105.53 44.0146 105.121 44.0146 104.708 44.0146C98.1711 44.0146 91.6338 44.0146 85.0965 44.0146C60.9867 44.0146 36.8737 44.008 12.764 44.0211C9.74246 44.0211 7.00251 43.3042 4.67828 41.291C4.48514 41.124 4.28219 40.9604 3.95156 40.6854C3.95156 41.183 3.95156 41.4907 3.95156 41.7984C3.95156 60.5002 3.95156 79.2021 3.95156 97.9039C3.95156 102.742 7.33637 106.124 12.1681 106.124C43.0607 106.124 73.9566 106.124 104.849 106.124C105.222 106.124 105.599 106.124 106.011 106.124V90.0605V90.0637ZM106.005 64.0651C105.805 64.0226 105.704 63.9833 105.602 63.9833C98.122 63.9833 90.6354 63.8425 83.1586 64.0193C75.4559 64.2026 70.2476 71.1393 72.0972 78.4262C73.4033 83.5788 78.0125 87.0586 83.6496 87.0783C90.8154 87.1044 97.9812 87.0848 105.144 87.0815C105.415 87.0815 105.687 87.0389 106.001 87.0128V64.0618L106.005 64.0651ZM16.5482 40.9898C18.365 40.9898 19.9461 40.9506 21.5207 41.0062C22.2605 41.0324 22.6337 40.7574 22.9905 40.1289C27.1054 32.9467 31.253 25.7809 35.3973 18.6118C36.1895 17.2402 36.6314 17.0961 38.026 17.7083C40.216 18.6674 42.3831 18.0782 43.8006 16.1369C44.6222 15.0141 45.182 14.8767 46.3703 15.5576C49.3819 17.286 52.3904 19.021 55.3922 20.7658C56.5871 21.4598 56.7573 22.0228 56.2008 23.2832C55.2056 25.5419 55.7851 27.6533 57.7983 29.1264C58.8884 29.9219 59.0226 30.4522 58.3515 31.6209C56.7671 34.3903 55.1598 37.1499 53.5655 39.9161C53.3953 40.2107 53.2546 40.5184 53.0091 40.9898C54.7604 40.9898 56.3612 40.9538 57.9587 41.0062C58.6527 41.0291 59.0161 40.7901 59.3565 40.1944C62.509 34.6817 65.6942 29.1886 68.8662 23.6891C69.0168 23.4305 69.1346 23.1522 69.2819 22.8543C58.6919 16.7393 48.1642 10.657 37.5775 4.54203C30.559 16.7 23.606 28.75 16.5417 40.9898H16.5482ZM53.1204 22.8772C50.5768 21.4107 48.1249 19.9998 45.6861 18.5954C43.5485 20.7461 41.0999 21.5678 38.2224 20.8934C37.5612 20.7396 37.3648 21.1292 37.1127 21.5645C33.5576 27.7319 29.9992 33.896 26.4442 40.0667C26.2969 40.322 26.1888 40.6003 26.0022 40.9931H27.423C33.4987 40.9931 39.5744 40.9931 45.6501 40.9931C46.9137 40.9931 48.4261 41.3826 49.3689 40.8261C50.351 40.2467 50.8027 38.7474 51.4541 37.6311C52.7406 35.428 54.0075 33.2118 55.2777 31.0087C52.9895 28.6812 52.2136 26.0264 53.1138 22.8805L53.1204 22.8772ZM53.7816 10.4442C54.1025 10.6374 54.4233 10.8371 54.7539 11.0269C60.3418 14.2547 65.9363 17.4824 71.5243 20.7134C73.0498 21.594 73.1906 22.1472 72.3035 23.6891C69.1838 29.1003 66.0608 34.5082 62.9378 39.9194C62.7577 40.2336 62.5842 40.5479 62.3387 40.9931C66.5125 40.9931 70.4833 41.0095 74.4509 40.9669C74.8011 40.9636 75.2136 40.6592 75.4886 40.3875C78.5625 37.3464 81.6134 34.2856 84.6676 31.2248C84.8804 31.012 85.0703 30.7698 85.1652 30.6585C76.5066 21.9967 67.9136 13.4035 59.3729 4.85956C57.5823 6.65019 55.7261 8.50631 53.7849 10.4508L53.7816 10.4442ZM22.159 25.3062C18.473 25.3062 14.9932 25.2702 11.5167 25.316C7.46077 25.3684 4.03013 28.8384 3.95484 32.891C3.86973 37.4478 7.2873 40.8916 11.9521 41.0029C12.7738 41.0226 13.2616 40.8065 13.6904 40.0438C15.8542 36.1875 18.09 32.3738 20.303 28.5437C20.8955 27.5191 21.4814 26.4912 22.1623 25.3029L22.159 25.3062ZM84.5891 25.3291C84.5399 25.4077 84.4909 25.483 84.4418 25.5615C85.6693 26.7531 86.9068 27.9349 88.1212 29.1428C89.2244 30.2395 89.2146 30.8614 88.1049 31.9777C85.378 34.7144 82.6446 37.4413 79.9145 40.178C79.7083 40.3842 79.5249 40.6166 79.1975 40.9898C82.4842 40.9898 85.5646 40.9898 88.645 40.9898C88.9167 40.9898 89.1884 40.9506 89.4994 40.9276V25.3324H84.5891V25.3291Z" stroke="#FE4444" stroke-width="2" mask="url(#path-1-outside-1_1_41)"/>
<path d="M78.9912 75.5292C78.9912 72.3604 81.5085 69.8397 84.6708 69.8397C87.8003 69.8397 90.393 72.416 90.3962 75.5259C90.3962 78.6292 87.8003 81.2186 84.6774 81.2186C81.5216 81.2186 78.9945 78.6914 78.9945 75.5292H78.9912ZM81.9734 75.4932C81.9603 77.0252 83.1552 78.2626 84.6578 78.2724C86.1374 78.2822 87.3879 77.0153 87.378 75.5128C87.3715 74.056 86.1767 72.8285 84.7298 72.7892C83.237 72.7499 81.9865 73.9742 81.9734 75.4932Z" fill="#FE4444"/>
</svg>
