<svg width="96" height="106" viewBox="0 0 96 106" fill="none" xmlns="http://www.w3.org/2000/svg">
<path d="M9.10283 105.892C7.02084 105.361 5.04803 104.614 3.45014 103.097C1.27715 101.033 0.0177833 98.5322 0.0141434 95.5184C-0.00769565 79.3575 -0.000419517 63.1966 0.0105 47.0357C0.0105 44.4113 0.92408 42.0928 2.71852 40.2C4.85147 37.9506 7.10456 35.814 9.24843 33.5755C9.62333 33.1861 9.89265 32.5236 9.89993 31.9813C9.95453 27.7772 9.91453 23.5732 9.93637 19.3692C9.95821 14.8485 13.5289 11.2378 18.0605 11.1905C22.2645 11.1468 26.4685 11.1541 30.6726 11.1905C31.4333 11.1978 31.9465 10.9575 32.467 10.4297C35.59 7.26671 38.7566 4.14736 41.8833 0.984331C42.5603 0.30004 43.2846 -0.020249 44.2601 0.00159011C46.4658 0.0561878 48.6716 0.0634675 50.8773 0.00159011C51.9365 -0.0275287 52.7082 0.343721 53.4289 1.07897C56.5009 4.19468 59.6202 7.26671 62.6886 10.3897C63.2674 10.9757 63.8461 11.205 64.676 11.1977C68.8472 11.1577 73.0149 11.1541 77.1861 11.1977C81.5794 11.2451 85.1865 14.8776 85.212 19.26C85.2375 23.5332 85.2011 27.8064 85.2484 32.0795C85.252 32.56 85.5032 33.1497 85.838 33.4954C87.7235 35.4573 89.6453 37.3864 91.5999 39.2828C94.0277 41.6414 95.1815 44.4586 95.1706 47.8692C95.1233 63.4441 95.0614 79.019 95.1961 94.5939C95.2471 100.694 90.912 105.102 86.3149 105.75C86.2202 105.765 86.1365 105.848 86.0492 105.899H56.2679C55.7984 105.379 55.1177 104.935 54.903 104.327C54.4262 102.966 55.5327 101.768 57.1342 101.768C66.0628 101.764 74.9877 101.783 83.9162 101.743C85.03 101.739 86.1438 101.44 87.294 101.273C79.0497 93.0324 70.9875 84.9774 62.9216 76.9152C60.5266 79.3029 58.0587 81.7598 55.5946 84.2131C50.7936 88.9922 44.4275 89.0031 39.652 84.2276C37.1697 81.7452 34.7055 79.241 32.3432 76.8533C24.19 85.0065 16.1131 93.087 7.89437 101.306C9.0664 101.462 10.2093 101.743 11.3522 101.75C20.2116 101.786 29.0674 101.775 37.9267 101.761C38.8658 101.761 39.6265 101.994 40.1034 102.842C40.7294 103.963 40.3181 105 38.8986 105.903H9.1174L9.10283 105.892ZM47.5396 15.3144C37.9559 15.3144 28.3758 15.3144 18.7921 15.3144C15.7273 15.3144 14.0639 16.9742 14.0639 20.0353C14.0639 30.6163 14.0712 41.1937 14.0494 51.7747C14.0494 52.4882 14.2641 52.9795 14.7664 53.4818C24.0225 62.7016 33.2568 71.9359 42.4984 81.1665C45.7634 84.4278 49.4541 84.4205 52.7264 81.1483C61.9388 71.9359 71.1403 62.7161 80.371 53.5182C80.9097 52.9795 81.0954 52.4481 81.0954 51.7092C81.0735 41.1646 81.0808 30.62 81.0808 20.0717C81.0808 16.9487 79.4319 15.3108 76.2907 15.3108C66.707 15.3108 57.1269 15.3108 47.5432 15.3108L47.5396 15.3144ZM28.7907 73.9341C20.5683 65.6899 12.3241 57.4201 4.14536 49.2196C4.16356 49.1213 4.14172 49.1868 4.14172 49.256C4.14172 64.5834 4.13077 79.9108 4.15989 95.2418C4.15989 96.159 4.49113 97.0763 4.67676 98.0481C12.8773 89.8475 20.9359 81.7889 28.7871 73.9378L28.7907 73.9341ZM91.003 48.9975C82.6568 57.3255 74.3944 65.5698 66.1829 73.763C74.2051 81.7853 82.2673 89.8402 90.5152 98.0881C90.6863 96.8615 90.9775 95.7332 90.9811 94.6048C91.0103 79.7542 91.003 64.9037 91.003 50.0495C91.003 49.711 91.003 49.3761 91.003 48.9939V48.9975ZM57.5565 11.125C56.2934 9.87285 55.2088 8.78453 54.1132 7.70714C52.9157 6.52783 51.8965 4.90081 50.4551 4.30751C49.0101 3.71422 47.1392 4.15828 45.454 4.14736C45.4212 4.14736 45.3812 4.13644 45.352 4.14736C44.9335 4.32207 44.4202 4.3985 44.1145 4.68969C42.2836 6.45502 40.5074 8.27859 38.6911 10.0657C38.3854 10.3679 37.9923 10.579 37.6392 10.8338C37.7229 10.9284 37.8103 11.0267 37.894 11.1213H57.5565V11.125ZM5.29192 43.4504C6.99537 45.183 8.49132 46.7044 9.8599 48.0948V39.4721C8.3712 40.7679 6.72238 42.2056 5.29192 43.4504ZM85.2484 48.306C86.799 46.77 88.3314 45.2521 90.002 43.596C88.4005 42.1947 86.7444 40.746 85.2484 39.4357V48.306Z" fill="#FE4444"/>
<path d="M46.9499 105.892C46.4731 105.31 45.7888 104.796 45.5631 104.127C45.2319 103.151 45.9853 102.117 46.9608 101.823C47.9072 101.535 48.9373 101.968 49.4068 102.853C49.8945 103.77 49.6434 104.862 48.788 105.503C48.5988 105.644 48.3876 105.761 48.1875 105.892H46.9463H46.9499Z" fill="#FE4444"/>
<path d="M53.2796 63.4077C50.4951 63.3021 47.6888 63.3713 44.9298 63.0583C36.8712 62.1447 29.7444 55.2544 28.3612 47.2322C26.494 36.3891 33.0493 26.6598 43.7978 24.3267C54.2442 22.0591 65.211 29.5062 66.758 40.0945C67.1729 42.9299 67.1693 45.8709 66.9727 48.7355C66.7179 52.4882 63.3474 55.0069 59.3363 54.814C55.9731 54.6502 53.0612 51.6255 52.9447 48.1276C52.8792 46.2022 53.0212 44.2548 52.8173 42.3476C52.4788 39.1627 50.0511 36.9788 46.979 36.8405C43.9907 36.7058 41.0279 38.9552 40.3472 41.878C39.3572 46.1185 42.3491 49.9876 46.7097 50.0932C47.8453 50.1223 48.9882 50.0604 50.1202 50.1296C51.2922 50.1987 52.0821 51.0249 52.1294 52.0987C52.1804 53.2707 51.4961 54.1989 50.2622 54.279C47.7907 54.4391 45.312 54.4974 42.9206 53.5874C37.8758 51.6619 34.9894 46.2167 36.256 40.9608C37.5191 35.723 42.5966 32.1414 47.9363 32.7238C53.0212 33.2807 57.0105 37.6813 57.0723 42.8171C57.0905 44.4004 57.065 45.9874 57.0832 47.5708C57.1014 49.3506 58.3463 50.6683 59.9878 50.6828C61.6294 50.6974 62.9215 49.3907 62.8997 47.6035C62.8633 44.7935 63.1472 41.969 62.3173 39.1955C60.2645 32.3453 53.7928 27.7372 46.6879 28.1522C39.5428 28.5671 33.6026 33.9286 32.4342 41.0227C30.9965 49.7328 37.1551 58.1081 45.8798 58.9416C49.8764 59.3238 53.9311 59.1127 57.9605 59.1673C58.7175 59.1782 59.4783 59.16 60.2354 59.1673C61.6003 59.1855 62.4557 59.9644 62.4739 61.1947C62.4921 62.4796 61.6476 63.2912 60.2171 63.3022C57.9095 63.3204 55.5982 63.3058 53.2905 63.3058C53.2905 63.3386 53.2905 63.3749 53.2905 63.4077H53.2796Z" fill="#FE4444"/>
</svg>
