<svg width="114" height="105" viewBox="0 0 114 105" fill="none" xmlns="http://www.w3.org/2000/svg">
<path d="M0 30.6703C1.92422 23.2496 6.52197 17.1864 10.3886 10.8103C14.7317 3.64074 24.2873 1.64638 31.6677 5.8098C36.2146 8.37554 40.7177 11.0141 45.2245 13.6526C45.8756 14.0348 46.4104 14.1148 47.1633 13.86C52.634 12.0112 58.2212 11.549 63.9174 12.6044C64.6122 12.7318 65.1651 12.6954 65.6852 12.0768C66.1254 11.5527 66.7401 11.1414 67.3403 10.7884C71.1742 8.54657 75.0299 6.33385 78.8783 4.1102C79.0056 4.03742 79.1293 3.95008 79.2639 3.88821C80.1987 3.45512 81.1335 3.70258 81.5919 4.50324C82.0611 5.32209 81.8501 6.25015 80.9371 6.79969C78.9111 8.02615 76.8486 9.19438 74.7971 10.3808C72.811 11.5308 70.7995 12.6445 68.8389 13.8346C67.293 14.7735 66.6128 16.3712 66.9947 18.1362C67.3585 19.8176 68.4534 20.9713 70.1339 21.1715C71.1233 21.288 72.2909 21.0369 73.1821 20.5747C75.7101 19.2645 78.1508 17.7796 80.6025 16.3275C81.5046 15.7962 82.2794 15.7998 83.1705 16.3966C85.313 17.8342 87.5791 17.9325 89.9216 16.8443C90.3691 16.6369 91.0274 16.3712 91.3621 16.5532C91.9113 16.8516 92.4933 17.423 92.6716 18.0016C92.9116 18.7695 92.3515 19.3846 91.6276 19.7595C88.754 21.248 85.7968 21.4044 82.8613 20.0688C81.8938 19.6284 81.2245 19.672 80.4315 20.4909C84.189 23.8973 87.1754 27.9007 89.1796 32.5882C91.1766 37.2502 92.0787 42.1306 91.8859 47.4004C92.3551 47.142 92.697 46.96 93.0317 46.7671C96.56 44.7327 100.074 42.6728 103.62 40.6675C107.727 38.3456 110.077 34.8773 110.539 30.1789C110.768 27.8388 110.331 25.5605 109.189 23.5189C106.512 18.7368 103.824 13.9546 100.969 9.28171C98.1241 4.63062 92.5952 2.50891 87.259 3.76813C87.008 3.82635 86.7607 3.9137 86.5061 3.94645C85.3967 4.09202 84.6001 3.58251 84.4036 2.61808C84.2327 1.77739 84.8147 0.925764 85.8077 0.649173C88.5722 -0.12237 91.3584 -0.242451 94.1484 0.48542C98.346 1.57723 101.703 3.90278 103.94 7.63676C106.719 12.2733 109.48 16.928 112.056 21.681C116.195 29.3091 113.514 38.7095 106.017 43.1641C101.467 45.8681 96.8474 48.4593 92.2896 51.1525C91.8495 51.4145 91.4057 51.9786 91.3075 52.4699C90.1726 58.231 87.7028 63.337 83.9198 67.8062C83.4288 68.3848 83.3524 68.8616 83.5597 69.5749C83.7853 70.3428 83.8544 71.1798 83.858 71.9878C83.8835 77.4796 83.8835 82.9713 83.8689 88.4631C83.8471 96.6044 78.4636 103.155 70.494 104.717C69.4828 104.913 68.4315 104.979 67.3985 104.982C62.5789 105.008 57.7556 105 52.936 104.993C44.5734 104.982 37.8478 99.2247 36.5783 90.9598C36.4401 90.0499 36.4692 89.1073 36.4655 88.1829C36.4546 83.1351 36.4801 78.091 36.4292 73.0432C36.4255 72.541 36.1309 71.8968 35.7526 71.562C31.3913 67.697 28.1721 63.0641 26.2115 57.576C25.946 56.8263 25.5568 56.4659 24.8075 56.2694C24.0691 56.0729 23.3416 55.749 22.6759 55.3669C17.889 52.6264 13.1094 49.8642 8.33706 47.0983C3.84116 44.4888 1.09488 40.6457 0.200061 35.4997C0.178237 35.3687 0.0691117 35.2522 0 35.1285C0 33.6436 0 32.1588 0 30.6739V30.6703ZM32.5043 62.6747C34.6541 65.9611 37.193 68.7051 40.3394 70.7905C42.3619 72.1298 44.5807 73.1815 46.7341 74.3206C48.0218 75.0012 48.3746 76.5516 47.2433 77.2394C46.7414 77.5451 45.8538 77.5924 45.3009 77.3631C43.4749 76.6061 41.7217 75.6745 39.8229 74.7537C39.8229 75.1759 39.8229 75.5326 39.8229 75.8929C39.8229 80.0854 39.8156 84.2779 39.8229 88.4704C39.8375 95.9675 45.3955 101.528 52.8814 101.539C57.701 101.547 62.5243 101.547 67.3439 101.532C68.1551 101.532 68.9844 101.525 69.7774 101.372C76.1975 100.135 80.3588 95.156 80.4097 88.6124C80.4497 83.0478 80.4206 77.4832 80.417 71.9186C80.417 71.5838 80.4024 71.249 80.366 70.9178C80.1187 68.6541 77.8489 67.0419 75.6264 67.5478C73.5567 68.0209 72.3709 69.5458 72.3564 71.8386C72.3345 74.7319 72.4 77.6288 72.3127 80.5185C72.2945 81.1263 71.9344 82.0361 71.4688 82.2617C68.748 83.5792 67.413 85.7009 67.2239 88.667C67.1621 89.6132 66.5437 90.1154 65.587 90.13C64.674 90.1445 63.9938 89.5113 63.8993 88.5614C63.8702 88.2666 63.8774 87.9646 63.9102 87.6734C64.2412 84.6855 65.5107 82.1816 67.995 80.4675C68.9299 79.8233 69.1736 79.1719 68.9044 78.131C68.5516 78.2366 68.2024 78.3422 67.8495 78.4441C62.8335 79.918 57.7483 80.311 52.5831 79.434C51.2263 79.2047 50.5716 77.9927 51.1936 76.9191C51.721 76.0129 52.5649 76.0857 53.4416 76.1185C56.0242 76.2094 58.6177 76.4023 61.193 76.2895C63.8811 76.1694 66.4855 75.4525 69.0499 74.4043C68.7662 70.9797 68.9444 67.7188 72.0144 65.5352C75.0699 63.3661 78.169 63.621 81.2681 65.7791C82.0465 64.7346 82.785 63.741 83.5161 62.7621C83.367 62.6165 83.3233 62.551 83.2615 62.5182C75.0554 57.7725 66.8565 53.0232 58.6322 48.3102C58.3085 48.1246 57.6938 48.1682 57.3518 48.3538C55.1766 49.5475 53.0415 50.8104 50.8953 52.0515C44.8099 55.5707 38.7208 59.09 32.5116 62.682L32.5043 62.6747ZM42.3073 15.8689C38.2224 13.507 34.2431 11.156 30.2127 8.88868C23.6726 5.20929 16.2558 7.23642 12.4583 13.7218C9.98847 17.9398 7.54409 22.1723 5.13246 26.4231C1.59321 32.6609 3.45559 40.1289 9.59926 43.8629C14.5644 46.8799 19.6205 49.7477 24.6984 52.5682C25.5277 53.0304 26.7135 53.1687 27.6629 53.0159C29.3434 52.7465 30.4055 51.5529 30.6893 49.8642C30.9875 48.0955 30.3582 46.6215 28.7905 45.6862C26.2188 44.1468 23.6144 42.6582 21.01 41.177C20.1843 40.7075 19.7441 40.0925 19.8242 39.1135C20.046 36.3877 18.9694 34.3059 16.7069 32.7774C16.3176 32.5117 15.8702 31.995 15.8593 31.5837C15.8448 31.0306 16.0848 30.208 16.485 29.9787C16.9833 29.6912 17.9109 29.6367 18.3983 29.9205C21.2682 31.5983 22.9014 34.164 23.1924 37.4831C23.287 38.5422 23.7453 39.048 24.7529 39.2736C27.0918 28.836 32.9372 21.0696 42.3037 15.8616L42.3073 15.8689ZM59.7562 15.4541C59.7271 15.8726 59.7016 16.0909 59.7016 16.3093C59.7016 25.586 59.7089 34.8591 59.6798 44.1359C59.6798 44.8674 60.0145 45.1731 60.5674 45.4897C68.3006 49.9406 76.0229 54.4098 83.7489 58.8716C84.2181 59.1446 84.7019 59.3956 85.142 59.6358C85.2766 59.5303 85.3566 59.4975 85.3857 59.4356C85.5567 59.1081 85.724 58.7769 85.8732 58.4385C87.2772 55.2249 88.1757 51.8876 88.4048 48.3757C89.0669 38.2437 85.5931 29.8004 78.1035 22.973C77.4743 22.3979 76.9687 22.1796 76.2157 22.7655C75.6373 23.2168 74.9535 23.5407 74.2951 23.8755C70.1084 25.9936 65.0596 23.8246 63.7938 19.3046C63.5028 18.2637 63.5101 17.1391 63.3646 15.9163C62.2842 15.778 61.0839 15.6215 59.7562 15.4504V15.4541ZM30.7511 59.7195C31.053 59.5667 31.2203 59.4903 31.3767 59.3993C39.4555 54.7336 47.5234 50.0535 55.6168 45.4133C56.2024 45.0748 56.3261 44.689 56.3224 44.0885C56.3079 34.8882 56.3152 25.6879 56.3115 16.4913C56.3115 16.1783 56.2679 15.8617 56.2388 15.4796C55.2057 15.5888 54.2818 15.6433 53.3688 15.7852C40.6268 17.8124 30.6238 27.4203 28.0776 40.0343C27.8993 40.915 28.0521 41.4828 28.9469 41.8613C29.6562 42.1597 30.311 42.6073 30.9512 43.0441C33.6101 44.8601 34.7596 48.1828 33.8357 51.2726C33.13 53.6309 31.5441 55.1885 29.2488 56.1857C29.7508 57.3685 30.2273 58.4858 30.7511 59.7195Z" fill="#FE4444"/>
</svg>
